<svg width="30" height="30" viewBox="0 0 30 30" fill="none" xmlns="http://www.w3.org/2000/svg">
<g id="Frame">
<path id="Vector" opacity="0.1" d="M28.125 8.1625V12.5C28.125 12.7812 28.0312 13.0375 27.875 13.25C27.7437 13.4187 27.575 13.5562 27.375 13.6437C27.2188 13.7125 27.05 13.75 26.875 13.75H23.125V15C23.125 15.3437 22.8438 15.625 22.5 15.625H20.625C20.2812 15.625 20 15.3437 20 15V13.75H10V15C10 15.3437 9.71875 15.625 9.375 15.625H7.5C7.15625 15.625 6.875 15.3437 6.875 15V13.75H3.125C2.95 13.75 2.78125 13.7125 2.625 13.6437C2.425 13.5562 2.25625 13.4187 2.125 13.25C1.96875 13.0375 1.875 12.7812 1.875 12.5V8.1625C2.35 7.675 3.01875 7.375 3.75 7.375H26.25C26.9813 7.375 27.65 7.675 28.125 8.1625Z" fill="#FE910D" fill-opacity="0.17"/>
<path id="Vector_2" opacity="0.2" d="M28.125 9V12.5C28.125 12.7812 28.0312 13.0375 27.875 13.25C27.7437 13.4188 27.575 13.5562 27.375 13.6437C27.2188 13.7125 27.05 13.75 26.875 13.75H23.125V15C23.125 15.3438 22.8438 15.625 22.5 15.625H20.625C20.2812 15.625 20 15.3438 20 15V13.75H10V15C10 15.3438 9.71875 15.625 9.375 15.625H7.5C7.15625 15.625 6.875 15.3438 6.875 15V13.75H3.125C2.95 13.75 2.78125 13.7125 2.625 13.6437C2.425 13.5562 2.25625 13.4188 2.125 13.25C1.96875 13.0375 1.875 12.7812 1.875 12.5V9C2.23125 8.33125 2.9375 7.875 3.75 7.875H26.25C27.0625 7.875 27.7687 8.33125 28.125 9Z" fill="#FE910D" fill-opacity="0.17"/>
<path id="Vector_3" opacity="0.3" d="M27.875 10V13.25C27.7437 13.4188 27.575 13.5562 27.375 13.6437C27.2187 13.7125 27.05 13.75 26.875 13.75H23.125V15C23.125 15.3437 22.8437 15.625 22.5 15.625H20.625C20.2812 15.625 20 15.3437 20 15V13.75H10V15C10 15.3437 9.71875 15.625 9.375 15.625H7.5C7.15625 15.625 6.875 15.3437 6.875 15V13.75H3.125C2.95 13.75 2.78125 13.7125 2.625 13.6437C2.425 13.5562 2.25625 13.4188 2.125 13.25V10C2.125 9.10625 2.85625 8.375 3.75 8.375H26.25C27.1437 8.375 27.875 9.10625 27.875 10Z" fill="#FE910D" fill-opacity="0.17"/>
<path id="Vector_4" opacity="0.4" d="M27.375 10V13.6438C27.2187 13.7125 27.05 13.75 26.875 13.75H23.125V15C23.125 15.3438 22.8437 15.625 22.5 15.625H20.625C20.2812 15.625 20 15.3438 20 15V13.75H10V15C10 15.3438 9.71875 15.625 9.375 15.625H7.5C7.15625 15.625 6.875 15.3438 6.875 15V13.75H3.125C2.95 13.75 2.78125 13.7125 2.625 13.6438V10C2.625 9.38125 3.13125 8.875 3.75 8.875H26.25C26.8687 8.875 27.375 9.38125 27.375 10Z" fill="#FE910D" fill-opacity="0.17"/>
<path id="Vector_5" d="M25.625 25.625H4.375C3.68437 25.625 3.125 25.0656 3.125 24.375V10C3.125 9.655 3.405 9.375 3.75 9.375H26.25C26.595 9.375 26.875 9.655 26.875 10V24.375C26.875 25.0656 26.3156 25.625 25.625 25.625Z" fill="url(#paint0_linear_136_41)"/>
<path id="Vector_6" opacity="0.05" d="M26.875 10V15H24.375C24.375 16.0375 23.5312 16.875 22.5 16.875H20.625C19.5938 16.875 18.75 16.0375 18.75 15H11.25C11.25 16.0375 10.4062 16.875 9.375 16.875H7.5C6.46875 16.875 5.625 16.0375 5.625 15H3.125V10C3.125 9.65625 3.40625 9.375 3.75 9.375H26.25C26.5938 9.375 26.875 9.65625 26.875 10Z" fill="#FE910D" fill-opacity="0.17"/>
<path id="Vector_7" opacity="0.1" d="M26.875 10V14.75H24.125V15C24.125 15.8937 23.3937 16.625 22.5 16.625H20.625C19.7313 16.625 19 15.8937 19 15V14.75H11V15C11 15.8937 10.2688 16.625 9.375 16.625H7.5C6.60625 16.625 5.875 15.8937 5.875 15V14.75H3.125V10C3.125 9.65625 3.40625 9.375 3.75 9.375H26.25C26.5938 9.375 26.875 9.65625 26.875 10Z" fill="#FE910D" fill-opacity="0.17"/>
<path id="Vector_8" opacity="0.2" d="M26.875 10V14.5H23.875V15C23.875 15.7562 23.2563 16.375 22.5 16.375H20.625C19.8687 16.375 19.25 15.7562 19.25 15V14.5H10.75V15C10.75 15.7562 10.1312 16.375 9.375 16.375H7.5C6.74375 16.375 6.125 15.7562 6.125 15V14.5H3.125V10C3.125 9.65625 3.40625 9.375 3.75 9.375H26.25C26.5938 9.375 26.875 9.65625 26.875 10Z" fill="#FE910D" fill-opacity="0.17"/>
<path id="Vector_9" opacity="0.3" d="M26.875 10V14.25H23.625V15C23.625 15.6188 23.1187 16.125 22.5 16.125H20.625C20.0063 16.125 19.5 15.6188 19.5 15V14.25H10.5V15C10.5 15.6188 9.99375 16.125 9.375 16.125H7.5C6.88125 16.125 6.375 15.6188 6.375 15V14.25H3.125V10C3.125 9.65625 3.40625 9.375 3.75 9.375H26.25C26.5938 9.375 26.875 9.65625 26.875 10Z" fill="#FE910D" fill-opacity="0.17"/>
<path id="Vector_10" opacity="0.4" d="M26.875 10V14H23.375V15C23.375 15.4812 22.9813 15.875 22.5 15.875H20.625C20.1437 15.875 19.75 15.4812 19.75 15V14H10.25V15C10.25 15.4812 9.85625 15.875 9.375 15.875H7.5C7.01875 15.875 6.625 15.4812 6.625 15V14H3.125V10C3.125 9.65625 3.40625 9.375 3.75 9.375H26.25C26.5938 9.375 26.875 9.65625 26.875 10Z" fill="#FE910D" fill-opacity="0.17"/>
<path id="Vector_11" d="M26.875 6.25H3.125C2.43437 6.25 1.875 6.80937 1.875 7.5V12.5C1.875 13.1906 2.43437 13.75 3.125 13.75H6.875V15C6.875 15.345 7.155 15.625 7.5 15.625H9.375C9.72 15.625 10 15.345 10 15V13.75H20V15C20 15.345 20.28 15.625 20.625 15.625H22.5C22.845 15.625 23.125 15.345 23.125 15V13.75H26.875C27.5656 13.75 28.125 13.1906 28.125 12.5V7.5C28.125 6.80937 27.5656 6.25 26.875 6.25Z" fill="url(#paint1_linear_136_41)"/>
<path id="Vector_12" d="M26.875 6.25H3.125C2.43437 6.25 1.875 6.80937 1.875 7.5V12.5C1.875 13.1906 2.43437 13.75 3.125 13.75H6.875V15C6.875 15.345 7.155 15.625 7.5 15.625H9.375C9.72 15.625 10 15.345 10 15V13.75H20V15C20 15.345 20.28 15.625 20.625 15.625H22.5C22.845 15.625 23.125 15.345 23.125 15V13.75H26.875C27.5656 13.75 28.125 13.1906 28.125 12.5V7.5C28.125 6.80937 27.5656 6.25 26.875 6.25ZM27.8125 12.5C27.8125 13.0169 27.3919 13.4375 26.875 13.4375H23.125V12.5C23.125 12.155 22.845 11.875 22.5 11.875H20.625C20.28 11.875 20 12.155 20 12.5V13.4375H10V12.5C10 12.155 9.72 11.875 9.375 11.875H7.5C7.155 11.875 6.875 12.155 6.875 12.5V13.4375H3.125C2.60812 13.4375 2.1875 13.0169 2.1875 12.5V7.5C2.1875 6.98312 2.60812 6.5625 3.125 6.5625H26.875C27.3919 6.5625 27.8125 6.98312 27.8125 7.5V12.5Z" fill="url(#paint2_linear_136_41)"/>
<path id="Vector_13" d="M18.75 6.25H11.25V5C11.25 4.655 11.53 4.375 11.875 4.375H18.125C18.47 4.375 18.75 4.655 18.75 5V6.25Z" fill="url(#paint3_linear_136_41)"/>
<path id="Vector_14" opacity="0.05" d="M18.75 5H11.25V6.25H18.75V5Z" fill="#FE910D" fill-opacity="0.17"/>
<path id="Vector_15" opacity="0.1" d="M18.75 5.25H11.25V6.25H18.75V5.25Z" fill="#FE910D" fill-opacity="0.17"/>
<path id="Vector_16" opacity="0.2" d="M18.75 5.5H11.25V6.25H18.75V5.5Z" fill="#FE910D" fill-opacity="0.17"/>
<path id="Vector_17" opacity="0.3" d="M18.75 5.75H11.25V6.25H18.75V5.75Z" fill="#FE910D" fill-opacity="0.17"/>
<path id="Vector_18" opacity="0.4" d="M18.75 6H11.25V6.25H18.75V6Z" fill="#FE910D" fill-opacity="0.17"/>
</g>
<defs>
<linearGradient id="paint0_linear_136_41" x1="15" y1="2.54688" x2="15" y2="33.6744" gradientUnits="userSpaceOnUse">
<stop stop-color="#FCE724"/>
<stop offset="0.69" stop-color="#FDBD19"/>
<stop offset="1" stop-color="#FF6201"/>
</linearGradient>
<linearGradient id="paint1_linear_136_41" x1="15" y1="7.3825" x2="15" y2="14.7644" gradientUnits="userSpaceOnUse">
<stop stop-color="#FFFFF0" stop-opacity="0.6"/>
<stop offset="1" stop-color="#F4805D" stop-opacity="0.4"/>
</linearGradient>
<linearGradient id="paint2_linear_136_41" x1="15" y1="6.25" x2="15" y2="15.625" gradientUnits="userSpaceOnUse">
<stop stop-color="#F4805D" stop-opacity="0.6"/>
<stop offset="1" stop-color="#FFCFAE" stop-opacity="0.4"/>
</linearGradient>
<linearGradient id="paint3_linear_136_41" x1="15" y1="3.58687" x2="15" y2="7.17875" gradientUnits="userSpaceOnUse">
<stop stop-color="#FCE724"/>
<stop offset="0.325" stop-color="#FDBD19"/>
<stop offset="1" stop-color="#FF6201"/>
</linearGradient>
</defs>
</svg>
