<svg xmlns="http://www.w3.org/2000/svg"  viewBox="0 0 48 48" width="480px" height="480px" baseProfile="basic"><linearGradient id="phbpcfCnvA5a693IQyH7ga" x1="41.218" x2="-6.382" y1="23" y2="23" gradientUnits="userSpaceOnUse"><stop offset="0" stop-color="#962aff"/><stop offset=".781" stop-color="#be85ff"/><stop offset="1" stop-color="#c99fff"/></linearGradient><path fill="url(#phbpcfCnvA5a693IQyH7ga)" d="M41,39H7c-1.105,0-2-0.895-2-2V9c0-1.105,0.895-2,2-2h11.129c0.714,0,1.374,0.381,1.731,0.999	L22.174,12H41c1.105,0,2,0.895,2,2v23C43,38.105,42.105,39,41,39z"/><path fill="#c9a4fc" d="M17.313,23.376c1.437-0.676,2.426-2.129,2.426-3.833c0-2.355-1.884-4.239-4.239-4.239	s-4.239,1.884-4.239,4.239c0,1.704,0.989,3.157,2.426,3.833c-2.234,0.65-4.392,2.515-4.684,5.844C8.966,29.64,9.307,30,9.728,30	h11.544c0.422,0,0.762-0.36,0.725-0.78C21.705,25.889,19.546,24.026,17.313,23.376z"/><path fill="#962aff" d="M17,39v-3c0-2.206-1.794-4-4-4s-4,1.794-4,4v3H17z" opacity=".05"/><path fill="#962aff" d="M16.6,39v-3c0-1.985-1.615-3.6-3.6-3.6S9.4,34.015,9.4,36v3H16.6z" opacity=".1"/><path fill="#962aff" d="M16.2,39v-3c0-1.764-1.436-3.2-3.2-3.2S9.8,34.236,9.8,36v3H16.2z" opacity=".2"/><path fill="#962aff" d="M15.8,39v-3c0-1.542-1.258-2.8-2.8-2.8s-2.8,1.258-2.8,2.8v3H15.8z" opacity=".3"/><path fill="#962aff" d="M15.4,39v-3c0-1.321-1.079-2.4-2.4-2.4s-2.4,1.079-2.4,2.4v3H15.4z" opacity=".4"/><path fill="#b26aff" d="M15,36c0-1.1-0.9-2-2-2s-2,0.9-2,2v3.75h4V36z" opacity=".4"/><path fill="#b26aff" d="M15,36c0-1.1-0.9-2-2-2s-2,0.9-2,2v4.5h4V36z" opacity=".3"/><path fill="#b26aff" d="M15,36c0-1.1-0.9-2-2-2s-2,0.9-2,2v5.25h4V36z" opacity=".2"/><path fill="#b26aff" d="M15,36c0-1.1-0.9-2-2-2s-2,0.9-2,2v6h4V36z" opacity=".1"/><path fill="#b26aff" d="M15,39v-3c0-1.1-0.9-2-2-2s-2,0.9-2,2v3H15z"/><linearGradient id="phbpcfCnvA5a693IQyH7gb" x1="-268" x2="-268" y1="200.091" y2="190.194" gradientTransform="rotate(180 -127.5 117.5)" gradientUnits="userSpaceOnUse"><stop offset="0" stop-color="#4eaefe" stop-opacity=".2"/><stop offset="1" stop-color="#41a2fe" stop-opacity=".4"/></linearGradient><path fill="url(#phbpcfCnvA5a693IQyH7gb)" d="M13,44c1.1,0,2-0.9,2-2v-6c0-1.1-0.9-2-2-2	s-2,0.9-2,2v6C11,43.1,11.9,44,13,44L13,44z"/><linearGradient id="phbpcfCnvA5a693IQyH7gc" x1="-268" x2="-268" y1="191.109" y2="205.911" gradientTransform="rotate(180 -127.5 117.5)" gradientUnits="userSpaceOnUse"><stop offset="0" stop-color="#71b5ff" stop-opacity=".4"/><stop offset="1" stop-color="#fff" stop-opacity=".2"/></linearGradient><path fill="url(#phbpcfCnvA5a693IQyH7gc)" d="M13,44c1.1,0,2-0.9,2-2v-6c0-1.1-0.9-2-2-2	s-2,0.9-2,2v6C11,43.1,11.9,44,13,44z M11.5,36c0-0.827,0.673-1.5,1.5-1.5s1.5,0.673,1.5,1.5v6c0,0.827-0.673,1.5-1.5,1.5	s-1.5-0.673-1.5-1.5V36z"/><path fill="#962aff" d="M28,39v-3c0-2.206-1.794-4-4-4s-4,1.794-4,4v3H28z" opacity=".05"/><path fill="#962aff" d="M27.6,39v-3c0-1.985-1.615-3.6-3.6-3.6s-3.6,1.615-3.6,3.6v3H27.6z" opacity=".1"/><path fill="#962aff" d="M27.2,39v-3c0-1.764-1.436-3.2-3.2-3.2s-3.2,1.436-3.2,3.2v3H27.2z" opacity=".2"/><path fill="#962aff" d="M26.8,39v-3c0-1.542-1.258-2.8-2.8-2.8s-2.8,1.258-2.8,2.8v3H26.8z" opacity=".3"/><path fill="#962aff" d="M26.4,39v-3c0-1.321-1.079-2.4-2.4-2.4s-2.4,1.079-2.4,2.4v3H26.4z" opacity=".4"/><path fill="#b26aff" d="M26,36c0-1.1-0.9-2-2-2s-2,0.9-2,2v3.75h4V36z" opacity=".4"/><path fill="#b26aff" d="M26,36c0-1.1-0.9-2-2-2s-2,0.9-2,2v4.5h4V36z" opacity=".3"/><path fill="#b26aff" d="M26,36c0-1.1-0.9-2-2-2s-2,0.9-2,2v5.25h4V36z" opacity=".2"/><path fill="#b26aff" d="M26,36c0-1.1-0.9-2-2-2s-2,0.9-2,2v6h4V36z" opacity=".1"/><path fill="#b26aff" d="M26,39v-3c0-1.1-0.9-2-2-2s-2,0.9-2,2v3H26z"/><linearGradient id="phbpcfCnvA5a693IQyH7gd" x1="-279" x2="-279" y1="200.091" y2="190.194" gradientTransform="rotate(180 -127.5 117.5)" gradientUnits="userSpaceOnUse"><stop offset="0" stop-color="#4eaefe" stop-opacity=".2"/><stop offset="1" stop-color="#41a2fe" stop-opacity=".4"/></linearGradient><path fill="url(#phbpcfCnvA5a693IQyH7gd)" d="M24,44c1.1,0,2-0.9,2-2v-6c0-1.1-0.9-2-2-2	s-2,0.9-2,2v6C22,43.1,22.9,44,24,44L24,44z"/><linearGradient id="phbpcfCnvA5a693IQyH7ge" x1="-279" x2="-279" y1="191.109" y2="205.911" gradientTransform="rotate(180 -127.5 117.5)" gradientUnits="userSpaceOnUse"><stop offset="0" stop-color="#71b5ff" stop-opacity=".4"/><stop offset="1" stop-color="#fff" stop-opacity=".2"/></linearGradient><path fill="url(#phbpcfCnvA5a693IQyH7ge)" d="M24,44c1.1,0,2-0.9,2-2v-6c0-1.1-0.9-2-2-2	s-2,0.9-2,2v6C22,43.1,22.9,44,24,44z M22.5,36c0-0.827,0.673-1.5,1.5-1.5s1.5,0.673,1.5,1.5v6c0,0.827-0.673,1.5-1.5,1.5	s-1.5-0.673-1.5-1.5V36z"/><g><path fill="#962aff" d="M39,39v-3c0-2.206-1.794-4-4-4s-4,1.794-4,4v3H39z" opacity=".05"/><path fill="#962aff" d="M38.6,39v-3c0-1.985-1.615-3.6-3.6-3.6s-3.6,1.615-3.6,3.6v3H38.6z" opacity=".1"/><path fill="#962aff" d="M38.2,39v-3c0-1.764-1.436-3.2-3.2-3.2s-3.2,1.436-3.2,3.2v3H38.2z" opacity=".2"/><path fill="#962aff" d="M37.8,39v-3c0-1.542-1.258-2.8-2.8-2.8s-2.8,1.258-2.8,2.8v3H37.8z" opacity=".3"/><path fill="#962aff" d="M37.4,39v-3c0-1.321-1.079-2.4-2.4-2.4s-2.4,1.079-2.4,2.4v3H37.4z" opacity=".4"/></g><g><path fill="#b26aff" d="M37,36c0-1.1-0.9-2-2-2s-2,0.9-2,2v3.75h4V36z" opacity=".4"/><path fill="#b26aff" d="M37,36c0-1.1-0.9-2-2-2s-2,0.9-2,2v4.5h4V36z" opacity=".3"/><path fill="#b26aff" d="M37,36c0-1.1-0.9-2-2-2s-2,0.9-2,2v5.25h4V36z" opacity=".2"/><path fill="#b26aff" d="M37,36c0-1.1-0.9-2-2-2s-2,0.9-2,2v6h4V36z" opacity=".1"/><path fill="#b26aff" d="M37,39v-3c0-1.1-0.9-2-2-2s-2,0.9-2,2v3H37z"/></g><linearGradient id="phbpcfCnvA5a693IQyH7gf" x1="-290" x2="-290" y1="200.091" y2="190.194" gradientTransform="rotate(180 -127.5 117.5)" gradientUnits="userSpaceOnUse"><stop offset="0" stop-color="#4eaefe" stop-opacity=".2"/><stop offset="1" stop-color="#41a2fe" stop-opacity=".4"/></linearGradient><path fill="url(#phbpcfCnvA5a693IQyH7gf)" d="M35,44c1.1,0,2-0.9,2-2v-6c0-1.1-0.9-2-2-2	s-2,0.9-2,2v6C33,43.1,33.9,44,35,44L35,44z"/><linearGradient id="phbpcfCnvA5a693IQyH7gg" x1="-290" x2="-290" y1="191.109" y2="205.911" gradientTransform="rotate(180 -127.5 117.5)" gradientUnits="userSpaceOnUse"><stop offset="0" stop-color="#71b5ff" stop-opacity=".4"/><stop offset="1" stop-color="#fff" stop-opacity=".2"/></linearGradient><path fill="url(#phbpcfCnvA5a693IQyH7gg)" d="M35,44c1.1,0,2-0.9,2-2v-6c0-1.1-0.9-2-2-2	s-2,0.9-2,2v6C33,43.1,33.9,44,35,44z M33.5,36c0-0.827,0.673-1.5,1.5-1.5s1.5,0.673,1.5,1.5v6c0,0.827-0.673,1.5-1.5,1.5	s-1.5-0.673-1.5-1.5V36z"/><g><path fill="#721ded" d="M26.999,21h12.002C40.104,21,41,20.104,41,19.001s-0.896-2-1.999-2H26.999 c-1.103,0-1.999,0.897-1.999,2S25.896,21,26.999,21z" opacity=".05"/><path fill="#721ded" d="M39.001,22H26.999C25.896,22,25,22.897,25,24.001C25,25.104,25.896,26,26.999,26 h12.002C40.104,26,41,25.103,41,23.999C41,22.896,40.104,22,39.001,22z" opacity=".05"/><path fill="#721ded" d="M35.001,27h-8.002C25.896,27,25,27.897,25,29.001C25,30.104,25.896,31,26.999,31 h8.002C36.104,31,37,30.103,37,28.999C37,27.896,36.104,27,35.001,27z" opacity=".05"/><path fill="#721ded" d="M26.999,17.251h12.002c0.965,0,1.749,0.785,1.749,1.75v0 c0,0.965-0.784,1.749-1.749,1.749H26.999c-0.965,0-1.749-0.784-1.749-1.749c0,0,0,0,0,0C25.25,18.036,26.034,17.251,26.999,17.251z M26.999,22.25h12.002c0.965,0,1.749,0.784,1.749,1.749c0,0.001,0,0.001,0,0.002c-0.001,0.965-0.785,1.749-1.749,1.749H26.999 c-0.965,0-1.749-0.784-1.749-1.749c0-0.001,0-0.001,0-0.002C25.251,23.034,26.035,22.25,26.999,22.25z M26.999,27.25h8.002 c0.965,0,1.749,0.784,1.749,1.749c0,0.001,0,0.001,0,0.002c-0.001,0.965-0.785,1.749-1.749,1.749h-8.002 c-0.965,0-1.749-0.784-1.749-1.749c0-0.001,0-0.001,0-0.002C25.251,28.034,26.035,27.25,26.999,27.25z" opacity=".1"/><path fill="#721ded" d="M26.999,17.501h12.001c0.827,0,1.499,0.672,1.499,1.5v0 c0,0.827-0.672,1.499-1.499,1.499H26.999c-0.827,0-1.499-0.672-1.499-1.499v0C25.5,18.173,26.172,17.501,26.999,17.501z M26.999,22.5h12.001c0.827,0,1.499,0.672,1.499,1.499c0,0,0,0.001,0,0.002c-0.001,0.827-0.672,1.499-1.499,1.499H26.999 c-0.827,0-1.499-0.672-1.499-1.499c0,0,0-0.001,0-0.002C25.501,23.172,26.172,22.5,26.999,22.5z M26.999,27.5h8.001 c0.827,0,1.499,0.672,1.499,1.499c0,0,0,0.001,0,0.002c-0.001,0.827-0.672,1.499-1.499,1.499h-8.001 c-0.827,0-1.499-0.672-1.499-1.499c0,0,0-0.001,0-0.002C25.501,28.172,26.172,27.5,26.999,27.5z" opacity=".15"/><path fill="#721ded" d="M26.999,17.751h12.001c0.69,0,1.249,0.56,1.249,1.25v0c0,0.69-0.56,1.249-1.249,1.249 H26.999c-0.69,0-1.249-0.56-1.249-1.249v0C25.75,18.311,26.31,17.751,26.999,17.751z M26.999,22.75h12.001 c0.69,0,1.249,0.56,1.249,1.249c0,0,0,0.001,0,0.001c0,0.69-0.56,1.249-1.249,1.249H26.999c-0.69,0-1.249-0.56-1.249-1.249 c0,0,0-0.001,0-0.001C25.75,23.31,26.31,22.75,26.999,22.75z M26.999,27.75h8.001c0.69,0,1.249,0.56,1.249,1.249 c0,0,0,0.001,0,0.001c0,0.69-0.56,1.249-1.249,1.249h-8.001c-0.69,0-1.249-0.56-1.249-1.249c0,0,0-0.001,0-0.001 C25.75,28.31,26.31,27.75,26.999,27.75z" opacity=".2"/><path fill="#721ded" d="M26.999,18.001H39c0.552,0,1,0.447,1,0.999v0C40,19.553,39.553,20,39,20H26.999 C26.447,20,26,19.553,26,19.001v0C26,18.448,26.447,18.001,26.999,18.001z M26.999,23H39c0.552,0,1,0.447,1,0.999v0.001 C40,24.553,39.553,25,39,25H26.999C26.447,25,26,24.553,26,24.001v-0.001C26,23.447,26.447,23,26.999,23z M26.999,28H35 c0.552,0,1,0.447,1,0.999v0.001C36,29.553,35.553,30,35,30h-8.001C26.447,30,26,29.553,26,29.001v-0.001 C26,28.447,26.447,28,26.999,28z" opacity=".3"/></g><path fill="#fff" d="M26.999,18.001H39c0.552,0,1,0.447,1,0.999v0C40,19.553,39.553,20,39,20H26.999	C26.447,20,26,19.553,26,19.001v0C26,18.448,26.447,18.001,26.999,18.001z M26.999,23H39c0.552,0,1,0.447,1,0.999v0.001	C40,24.553,39.553,25,39,25H26.999C26.447,25,26,24.553,26,24.001v-0.001C26,23.447,26.447,23,26.999,23z M26.999,28H35	c0.552,0,1,0.447,1,0.999v0.001C36,29.553,35.553,30,35,30h-8.001C26.447,30,26,29.553,26,29.001v-0.001	C26,28.447,26.447,28,26.999,28z"/></svg>