<svg width="30" height="30" viewBox="0 0 30 30" fill="none" xmlns="http://www.w3.org/2000/svg">
<g id="Frame">
<path id="Vector" opacity="0.4" d="M8.75 23.3521C8.75 26.7421 5.97062 26.8746 5.625 26.8746H23.75C25.14 26.8746 26.3044 25.9609 26.71 24.7059C26.2806 25.5459 25.4425 26.4915 24.0025 26.504C22.6875 26.5009 21.0938 25.8853 21.0938 23.124V21.874C21.0938 21.2703 20.6038 20.7803 20 20.7803H8.75V23.3521Z" fill="#9043FF"/>
<path id="Vector_2" opacity="0.3" d="M8.75 23.3525C8.75 26.7425 5.97062 26.875 5.625 26.875H23.75C25.1425 26.875 26.3087 25.9575 26.7125 24.6994C26.3194 25.4 25.4894 26.1294 24.2556 26.135C23.0062 26.1288 21.5625 25.5213 21.5625 23.125V21.875C21.5625 21.0131 20.8619 20.3125 20 20.3125H8.75V23.3525Z" fill="#9043FF"/>
<path id="Vector_3" opacity="0.2" d="M8.75 23.3525C8.75 26.7425 5.97062 26.875 5.625 26.875H23.75C25.1475 26.875 26.3162 25.9519 26.7162 24.6863C26.3587 25.2481 25.5381 25.7656 24.5081 25.7644C23.325 25.7556 22.0312 25.1575 22.0312 23.125V21.875C22.0312 20.7544 21.12 19.8438 20 19.8438H8.75V23.3525Z" fill="#9043FF"/>
<path id="Vector_4" opacity="0.1" d="M8.75 23.3525C8.75 26.7425 5.97062 26.875 5.625 26.875H23.75C25.1537 26.875 26.3275 25.9431 26.7219 24.6688C26.3987 25.0919 25.59 25.4025 24.7612 25.3938C23.6437 25.3825 22.5 24.7931 22.5 23.125V21.875C22.5 20.4962 21.3787 19.375 20 19.375H8.75V23.3525Z" fill="#9043FF"/>
<path id="Vector_5" d="M23.75 26.875H5.625C3.75 26.875 2.5 25.625 2.5 23.125V21.875C2.5 21.53 2.78 21.25 3.125 21.25H20C20.345 21.25 20.625 21.53 20.625 21.875V23.125C20.625 26.25 22.3694 26.875 23.75 26.875Z" fill="url(#paint0_linear_133_105)"/>
<path id="Vector_6" opacity="0.4" d="M20.625 23.125V21.875C20.625 21.53 20.345 21.25 20 21.25H8.5V23.6025C8.5 26.6444 6.01375 26.875 5.625 26.875H23.75C22.3694 26.875 20.625 26.25 20.625 23.125Z" fill="#A064FF"/>
<path id="Vector_7" opacity="0.3" d="M20.625 23.125V21.875C20.625 21.53 20.345 21.25 20 21.25H8.25V23.8525C8.25 26.5456 6.0575 26.875 5.625 26.875H23.75C22.3694 26.875 20.625 26.25 20.625 23.125Z" fill="#A064FF"/>
<path id="Vector_8" opacity="0.2" d="M20.625 23.125V21.875C20.625 21.53 20.345 21.25 20 21.25H8V24.1025C8 26.4469 6.10125 26.875 5.625 26.875H23.75C22.3694 26.875 20.625 26.25 20.625 23.125Z" fill="#A064FF"/>
<path id="Vector_9" opacity="0.1" d="M20.625 23.125V21.875C20.625 21.53 20.345 21.25 20 21.25H7.75V24.3525C7.75 26.3488 6.145 26.875 5.625 26.875H23.75C22.3694 26.875 20.625 26.25 20.625 23.125Z" fill="#A064FF"/>
<path id="Vector_10" opacity="0.05" d="M20.625 23.125V21.875C20.625 21.53 20.345 21.25 20 21.25H7.5V24.6025C7.5 26.25 6.18875 26.875 5.625 26.875H23.75C22.3694 26.875 20.625 26.25 20.625 23.125Z" fill="#A064FF"/>
<path id="Vector_11" d="M9.375 3.75C9.03 3.75 8.75 4.03 8.75 4.375V23.3525C8.75 26.7425 5.97062 26.875 5.625 26.875H23.75C25.4756 26.875 26.875 25.4756 26.875 23.75V4.375C26.875 4.03 26.595 3.75 26.25 3.75H9.375Z" fill="url(#paint1_linear_133_105)"/>
<path id="Vector_12" d="M26.25 4.0625C26.4225 4.0625 26.5625 4.2025 26.5625 4.375V23.75C26.5625 25.3006 25.3006 26.5625 23.75 26.5625H7.61625C8.41312 26.0044 9.0625 25.0119 9.0625 23.3525V4.375C9.0625 4.2025 9.2025 4.0625 9.375 4.0625H26.25ZM26.25 3.75H9.375C9.03 3.75 8.75 4.03 8.75 4.375V23.3525C8.75 26.7425 5.97062 26.875 5.625 26.875H23.75C25.4756 26.875 26.875 25.4756 26.875 23.75V4.375C26.875 4.03 26.595 3.75 26.25 3.75Z" fill="url(#paint2_linear_133_105)"/>
<g id="Group">
<path id="Vector_13" opacity="0.05" d="M11.8744 16.8744H16.2506C16.94 16.8744 17.5 16.3144 17.5 15.625C17.5 14.9356 16.94 14.375 16.2506 14.375H11.8744C11.185 14.375 10.625 14.9356 10.625 15.625C10.625 16.3144 11.185 16.8744 11.8744 16.8744Z" fill="#2289EF"/>
<path id="Vector_14" opacity="0.05" d="M16.2506 17.5H11.8744C11.185 17.5 10.625 18.0606 10.625 18.7506C10.625 19.44 11.185 20 11.8744 20H16.2506C16.94 20 17.5 19.4394 17.5 18.7494C17.5 18.06 16.94 17.5 16.2506 17.5Z" fill="#2289EF"/>
<path id="Vector_15" opacity="0.05" d="M16.2506 20.624H11.8744C11.185 20.624 10.625 21.1846 10.625 21.8746C10.625 22.564 11.185 23.124 11.8744 23.124H16.2506C16.94 23.124 17.5 22.5634 17.5 21.8734C17.5 21.184 16.94 20.624 16.2506 20.624Z" fill="#2289EF"/>
<path id="Vector_16" opacity="0.1" d="M11.8744 14.5312H16.2506C16.8537 14.5312 17.3438 15.0219 17.3438 15.625C17.3438 16.2281 16.8537 16.7181 16.2506 16.7181H11.8744C11.2713 16.7181 10.7812 16.2281 10.7812 15.625C10.7812 15.0219 11.2713 14.5312 11.8744 14.5312ZM11.8744 17.6556H16.2506C16.8537 17.6556 17.3438 18.1456 17.3438 18.7488V18.75C17.3431 19.3531 16.8531 19.8431 16.2506 19.8431H11.8744C11.2713 19.8431 10.7812 19.3531 10.7812 18.75V18.7488C10.7819 18.1456 11.2719 17.6556 11.8744 17.6556ZM11.8744 20.7806H16.2506C16.8537 20.7806 17.3438 21.2706 17.3438 21.8738V21.875C17.3431 22.4781 16.8531 22.9681 16.2506 22.9681H11.8744C11.2713 22.9681 10.7812 22.4781 10.7812 21.875V21.8738C10.7819 21.2706 11.2719 20.7806 11.8744 20.7806Z" fill="#2289EF"/>
<path id="Vector_17" opacity="0.15" d="M11.8744 14.6875H16.25C16.7669 14.6875 17.1869 15.1075 17.1869 15.625C17.1869 16.1419 16.7669 16.5619 16.25 16.5619H11.8744C11.3575 16.5619 10.9375 16.1419 10.9375 15.625C10.9375 15.1075 11.3575 14.6875 11.8744 14.6875ZM11.8744 17.8119H16.25C16.7669 17.8119 17.1869 18.2319 17.1869 18.7488V18.75C17.1863 19.2669 16.7669 19.6869 16.25 19.6869H11.8744C11.3575 19.6869 10.9375 19.2669 10.9375 18.75V18.7488C10.9381 18.2319 11.3575 17.8119 11.8744 17.8119ZM11.8744 20.9369H16.25C16.7669 20.9369 17.1869 21.3569 17.1869 21.8738V21.875C17.1863 22.3919 16.7669 22.8119 16.25 22.8119H11.8744C11.3575 22.8119 10.9375 22.3919 10.9375 21.875V21.8738C10.9381 21.3569 11.3575 20.9369 11.8744 20.9369Z" fill="#2289EF"/>
<path id="Vector_18" opacity="0.2" d="M11.8744 14.8438H16.25C16.6812 14.8438 17.0306 15.1937 17.0306 15.625C17.0306 16.0562 16.6806 16.4056 16.25 16.4056H11.8744C11.4431 16.4056 11.0938 16.0556 11.0938 15.625C11.0938 15.1937 11.4438 14.8438 11.8744 14.8438ZM11.8744 17.9681H16.25C16.6812 17.9681 17.0306 18.3181 17.0306 18.7488C17.0306 19.18 16.6806 19.53 16.25 19.53H11.8744C11.4431 19.53 11.0938 19.18 11.0938 18.7494C11.0938 18.3187 11.4438 17.9681 11.8744 17.9681ZM11.8744 21.0931H16.25C16.6812 21.0931 17.0306 21.4431 17.0306 21.8738C17.0306 22.305 16.6806 22.655 16.25 22.655H11.8744C11.4431 22.655 11.0938 22.305 11.0938 21.8744C11.0938 21.4437 11.4438 21.0931 11.8744 21.0931Z" fill="#2289EF"/>
<path id="Vector_19" opacity="0.3" d="M11.8744 15H16.25C16.5956 15 16.875 15.2794 16.875 15.6244C16.875 15.97 16.5956 16.2494 16.2506 16.2494H11.875C11.5294 16.2494 11.25 15.97 11.25 15.625C11.25 15.2794 11.5294 15 11.8744 15ZM11.8744 18.1244H16.25C16.5956 18.1244 16.875 18.4038 16.875 18.7488C16.875 19.0944 16.5956 19.3744 16.2506 19.3744H11.875C11.5294 19.3744 11.25 19.095 11.25 18.75C11.25 18.4044 11.5294 18.1244 11.8744 18.1244ZM11.8744 21.2494H16.25C16.5956 21.2494 16.875 21.5288 16.875 21.8744C16.875 22.2194 16.5956 22.4994 16.2506 22.4994H11.875C11.5294 22.4994 11.25 22.22 11.25 21.8744C11.25 21.5288 11.5294 21.2494 11.8744 21.2494Z" fill="#2289EF"/>
</g>
<path id="Vector_20" d="M11.8744 15.001H16.25C16.5956 15.001 16.875 15.2804 16.875 15.6254C16.875 15.971 16.5956 16.2504 16.2506 16.2504H11.875C11.5294 16.2504 11.25 15.971 11.25 15.626C11.25 15.2804 11.5294 15.001 11.8744 15.001ZM11.8744 18.1254H16.25C16.5956 18.1254 16.875 18.4047 16.875 18.7497C16.875 19.0954 16.5956 19.3754 16.2506 19.3754H11.875C11.5294 19.3754 11.25 19.096 11.25 18.751C11.25 18.4054 11.5294 18.1254 11.8744 18.1254ZM11.8744 21.2504H16.25C16.5956 21.2504 16.875 21.5297 16.875 21.8754C16.875 22.2204 16.5956 22.5004 16.2506 22.5004H11.875C11.5294 22.5004 11.25 22.221 11.25 21.8754C11.25 21.5297 11.5294 21.2504 11.8744 21.2504Z" fill="white"/>
<g id="Group_2">
<path id="Vector_21" opacity="0.05" d="M19.9994 16.8744H24.3756C25.065 16.8744 25.625 16.3144 25.625 15.625C25.625 14.9356 25.065 14.375 24.3756 14.375H19.9994C19.31 14.375 18.75 14.9356 18.75 15.625C18.75 16.3144 19.31 16.8744 19.9994 16.8744Z" fill="#2289EF"/>
<path id="Vector_22" opacity="0.05" d="M24.3756 17.5H19.9994C19.31 17.5 18.75 18.0606 18.75 18.7506C18.75 19.44 19.31 20 19.9994 20H24.3756C25.065 20 25.625 19.4394 25.625 18.7494C25.625 18.06 25.065 17.5 24.3756 17.5Z" fill="#2289EF"/>
<path id="Vector_23" opacity="0.05" d="M24.3756 20.624H19.9994C19.31 20.624 18.75 21.1846 18.75 21.8746C18.75 22.564 19.31 23.124 19.9994 23.124H24.3756C25.065 23.124 25.625 22.5634 25.625 21.8734C25.625 21.184 25.065 20.624 24.3756 20.624Z" fill="#2289EF"/>
<path id="Vector_24" opacity="0.1" d="M19.9994 14.5312H24.3756C24.9787 14.5312 25.4688 15.0219 25.4688 15.625C25.4688 16.2281 24.9787 16.7181 24.3756 16.7181H19.9994C19.3963 16.7181 18.9062 16.2281 18.9062 15.625C18.9062 15.0219 19.3963 14.5312 19.9994 14.5312ZM19.9994 17.6556H24.3756C24.9787 17.6556 25.4688 18.1456 25.4688 18.7488V18.75C25.4681 19.3531 24.9781 19.8431 24.3756 19.8431H19.9994C19.3963 19.8431 18.9062 19.3531 18.9062 18.75V18.7488C18.9069 18.1456 19.3969 17.6556 19.9994 17.6556ZM19.9994 20.7806H24.3756C24.9787 20.7806 25.4688 21.2706 25.4688 21.8738V21.875C25.4681 22.4781 24.9781 22.9681 24.3756 22.9681H19.9994C19.3963 22.9681 18.9062 22.4781 18.9062 21.875V21.8738C18.9069 21.2706 19.3969 20.7806 19.9994 20.7806Z" fill="#2289EF"/>
<path id="Vector_25" opacity="0.15" d="M19.9994 14.6875H24.375C24.8919 14.6875 25.3119 15.1075 25.3119 15.625C25.3119 16.1419 24.8919 16.5619 24.375 16.5619H19.9994C19.4825 16.5619 19.0625 16.1419 19.0625 15.625C19.0625 15.1075 19.4825 14.6875 19.9994 14.6875ZM19.9994 17.8119H24.375C24.8919 17.8119 25.3119 18.2319 25.3119 18.7488V18.75C25.3113 19.2669 24.8919 19.6869 24.375 19.6869H19.9994C19.4825 19.6869 19.0625 19.2669 19.0625 18.75V18.7488C19.0631 18.2319 19.4825 17.8119 19.9994 17.8119ZM19.9994 20.9369H24.375C24.8919 20.9369 25.3119 21.3569 25.3119 21.8738V21.875C25.3113 22.3919 24.8919 22.8119 24.375 22.8119H19.9994C19.4825 22.8119 19.0625 22.3919 19.0625 21.875V21.8738C19.0631 21.3569 19.4825 20.9369 19.9994 20.9369Z" fill="#2289EF"/>
<path id="Vector_26" opacity="0.2" d="M19.9994 14.8438H24.375C24.8062 14.8438 25.1556 15.1937 25.1556 15.625C25.1556 16.0562 24.8056 16.4056 24.375 16.4056H19.9994C19.5681 16.4056 19.2188 16.0556 19.2188 15.625C19.2188 15.1937 19.5688 14.8438 19.9994 14.8438ZM19.9994 17.9681H24.375C24.8062 17.9681 25.1556 18.3181 25.1556 18.7488C25.1556 19.18 24.8056 19.53 24.375 19.53H19.9994C19.5681 19.53 19.2188 19.18 19.2188 18.7494C19.2188 18.3187 19.5688 17.9681 19.9994 17.9681ZM19.9994 21.0931H24.375C24.8062 21.0931 25.1556 21.4431 25.1556 21.8738C25.1556 22.305 24.8056 22.655 24.375 22.655H19.9994C19.5681 22.655 19.2188 22.305 19.2188 21.8744C19.2188 21.4437 19.5688 21.0931 19.9994 21.0931Z" fill="#2289EF"/>
<path id="Vector_27" opacity="0.3" d="M19.9994 15H24.375C24.72 15 25 15.2794 25 15.6244C25 15.97 24.7206 16.2494 24.375 16.2494H19.9994C19.6544 16.2494 19.375 15.97 19.375 15.625C19.375 15.2794 19.6544 15 19.9994 15ZM19.9994 18.1244H24.375C24.72 18.1244 25 18.4038 25 18.7488C25 19.0944 24.7206 19.3744 24.375 19.3744H19.9994C19.6544 19.3744 19.375 19.095 19.375 18.75C19.375 18.4044 19.6544 18.1244 19.9994 18.1244ZM19.9994 21.2494H24.375C24.72 21.2494 25 21.5288 25 21.8744C25 22.2194 24.7206 22.4994 24.375 22.4994H19.9994C19.6544 22.4994 19.375 22.22 19.375 21.8744C19.375 21.5288 19.6544 21.2494 19.9994 21.2494Z" fill="#2289EF"/>
</g>
<path id="Vector_28" d="M19.9994 15.001H24.375C24.72 15.001 25 15.2804 25 15.6254C25 15.971 24.7206 16.2504 24.375 16.2504H19.9994C19.6544 16.2504 19.375 15.971 19.375 15.626C19.375 15.2804 19.6544 15.001 19.9994 15.001ZM19.9994 18.1254H24.375C24.72 18.1254 25 18.4047 25 18.7497C25 19.0954 24.7206 19.3754 24.375 19.3754H19.9994C19.6544 19.3754 19.375 19.096 19.375 18.751C19.375 18.4054 19.6544 18.1254 19.9994 18.1254ZM19.9994 21.2504H24.375C24.72 21.2504 25 21.5297 25 21.8754C25 22.2204 24.7206 22.5004 24.375 22.5004H19.9994C19.6544 22.5004 19.375 22.221 19.375 21.8754C19.375 21.5297 19.6544 21.2504 19.9994 21.2504Z" fill="white"/>
<path id="Vector_29" opacity="0.3" d="M24.4381 6.25H11.8119C11.5019 6.25 11.25 6.50188 11.25 6.81188V11.9375C11.25 12.2481 11.5019 12.5 11.8119 12.5H24.4375C24.7481 12.5 25 12.2481 25 11.9381V6.8125C25 6.50187 24.7481 6.25 24.4381 6.25Z" fill="#2289EF"/>
</g>
<defs>
<linearGradient id="paint0_linear_133_105" x1="1.92938" y1="24.0625" x2="23.1794" y2="24.0625" gradientUnits="userSpaceOnUse">
<stop stop-color="#C99FFF"/>
<stop offset="0.219" stop-color="#BE85FF"/>
<stop offset="1" stop-color="#962AFF"/>
</linearGradient>
<linearGradient id="paint1_linear_133_105" x1="16.405" y1="45.7381" x2="16.2925" y2="23.9" gradientUnits="userSpaceOnUse">
<stop stop-color="#4EAEFE" stop-opacity="0.2"/>
<stop offset="1" stop-color="#41A2FE" stop-opacity="0.4"/>
</linearGradient>
<linearGradient id="paint2_linear_133_105" x1="8.30562" y1="19.8587" x2="27.0769" y2="9.89875" gradientUnits="userSpaceOnUse">
<stop stop-color="white" stop-opacity="0.2"/>
<stop offset="1" stop-color="#71B5FF" stop-opacity="0.4"/>
</linearGradient>
</defs>
</svg>
