<svg width="27" height="28" viewBox="0 0 27 28" fill="none" xmlns="http://www.w3.org/2000/svg">
<g id="github">
<path id="Vector" d="M13.7667 2.60645C7.47169 2.60645 2.37305 7.70509 2.37305 14.0001C2.37305 19.0417 5.63447 23.3001 10.1634 24.8098C10.7331 24.9095 10.9467 24.5676 10.9467 24.2686C10.9467 23.998 10.9325 23.1007 10.9325 22.1465C8.06986 22.6735 7.32927 21.4486 7.1014 20.8077C6.97322 20.4802 6.41778 19.469 5.93355 19.1984C5.53478 18.9848 4.96509 18.4578 5.91931 18.4436C6.81656 18.4293 7.45745 19.2696 7.67108 19.6114C8.6965 21.3347 10.3343 20.8505 10.9895 20.5514C11.0892 19.8108 11.3882 19.3123 11.7158 19.0275C9.18073 18.7427 6.53172 17.76 6.53172 13.4019C6.53172 12.1628 6.97322 11.1374 7.69956 10.3399C7.58563 10.055 7.18685 8.88718 7.8135 7.32055C7.8135 7.32055 8.76771 7.02147 10.9467 8.4884C11.8582 8.23204 12.8267 8.10387 13.7951 8.10387C14.7636 8.10387 15.7321 8.23204 16.6436 8.4884C18.8226 7.00723 19.7768 7.32055 19.7768 7.32055C20.4034 8.88718 20.0047 10.055 19.8907 10.3399C20.6171 11.1374 21.0586 12.1486 21.0586 13.4019C21.0586 17.7742 18.3953 18.7427 15.8602 19.0275C16.2733 19.3835 16.6293 20.0672 16.6293 21.1353C16.6293 22.6592 16.6151 23.884 16.6151 24.2686C16.6151 24.5676 16.8287 24.9237 17.3984 24.8098C19.6602 24.0462 21.6257 22.5925 23.018 20.6534C24.4104 18.7143 25.1597 16.3873 25.1603 14.0001C25.1603 7.70509 20.0616 2.60645 13.7667 2.60645Z" fill="white"/>
</g>
</svg>
