<svg width="16" height="17" viewBox="0 0 16 17" fill="none" xmlns="http://www.w3.org/2000/svg">
<g id="Home 3" clip-path="url(#clip0_138_821)">
<path id="icon" fill-rule="evenodd" clip-rule="evenodd" d="M0.353706 7.16705C0.128111 7.37732 0 7.67185 0 7.98025V14.3428C0 15.2637 0.746551 16.0103 1.66747 16.0103H6.66988V12.6754C6.66988 12.0614 7.16758 11.5637 7.78152 11.5637C8.39546 11.5637 8.89317 12.0614 8.89317 12.6754V16.0103H13.8956C14.8165 16.0103 15.563 15.2637 15.563 14.3428V7.98025C15.563 7.67185 15.435 7.37732 15.2093 7.16705L8.14325 0.581077C7.9351 0.402662 7.62795 0.402662 7.41979 0.581077L0.353706 7.16705Z" fill="white"/>
</g>
<defs>
<clipPath id="clip0_138_821">
<rect width="15.563" height="15.563" fill="white" transform="translate(0 0.447266)"/>
</clipPath>
</defs>
</svg>
