<svg width="49" height="50" viewBox="0 0 49 50" fill="none" xmlns="http://www.w3.org/2000/svg">
<g filter="url(#filter0_bi_138_661)">
<g clip-path="url(#clip0_138_661)">
<rect x="0.548828" y="1" width="48" height="48" rx="12" fill="url(#paint0_linear_138_661)" fill-opacity="0.04"/>
<g style="mix-blend-mode:plus-lighter" opacity="0.5" filter="url(#filter1_f_138_661)">
<rect x="10.5488" y="11" width="28" height="28" rx="6" fill="url(#paint1_radial_138_661)"/>
<rect x="10.5488" y="11" width="28" height="28" rx="6" fill="url(#paint2_radial_138_661)"/>
<rect x="10.5488" y="11" width="28" height="28" rx="6" fill="url(#paint3_radial_138_661)"/>
</g>
<rect x="10.5488" y="11" width="28" height="28" rx="6" fill="url(#paint4_radial_138_661)"/>
<rect x="10.5488" y="11" width="28" height="28" rx="6" fill="url(#paint5_radial_138_661)"/>
<rect x="10.5488" y="11" width="28" height="28" rx="6" fill="url(#paint6_radial_138_661)"/>
<path d="M31.5488 19.5C31.5488 20.3284 30.8773 21 30.0488 21C29.2204 21 28.5488 20.3284 28.5488 19.5C28.5488 18.6716 29.2204 18 30.0488 18C30.8773 18 31.5488 18.6716 31.5488 19.5Z" fill="white"/>
<path fill-rule="evenodd" clip-rule="evenodd" d="M24.5488 30C27.3103 30 29.5488 27.7614 29.5488 25C29.5488 22.2386 27.3103 20 24.5488 20C21.7874 20 19.5488 22.2386 19.5488 25C19.5488 27.7614 21.7874 30 24.5488 30ZM24.5488 28C26.2057 28 27.5488 26.6569 27.5488 25C27.5488 23.3431 26.2057 22 24.5488 22C22.892 22 21.5488 23.3431 21.5488 25C21.5488 26.6569 22.892 28 24.5488 28Z" fill="white"/>
<path fill-rule="evenodd" clip-rule="evenodd" d="M14.5488 24.6C14.5488 21.2397 14.5488 19.5595 15.2028 18.2761C15.778 17.1471 16.6959 16.2292 17.8249 15.654C19.1084 15 20.7885 15 24.1488 15H24.9488C28.3091 15 29.9893 15 31.2728 15.654C32.4017 16.2292 33.3196 17.1471 33.8949 18.2761C34.5488 19.5595 34.5488 21.2397 34.5488 24.6V25.4C34.5488 28.7603 34.5488 30.4405 33.8949 31.7239C33.3196 32.8529 32.4017 33.7708 31.2728 34.346C29.9893 35 28.3091 35 24.9488 35H24.1488C20.7885 35 19.1084 35 17.8249 34.346C16.6959 33.7708 15.778 32.8529 15.2028 31.7239C14.5488 30.4405 14.5488 28.7603 14.5488 25.4V24.6ZM24.1488 17H24.9488C26.662 17 27.8266 17.0016 28.7268 17.0751C29.6036 17.1467 30.052 17.2766 30.3648 17.436C31.1174 17.8195 31.7294 18.4314 32.1129 19.184C32.2722 19.4968 32.4021 19.9452 32.4737 20.8221C32.5473 21.7223 32.5488 22.8868 32.5488 24.6V25.4C32.5488 27.1132 32.5473 28.2777 32.4737 29.1779C32.4021 30.0548 32.2722 30.5032 32.1129 30.816C31.7294 31.5686 31.1174 32.1805 30.3648 32.564C30.052 32.7234 29.6036 32.8533 28.7268 32.9249C27.8266 32.9984 26.662 33 24.9488 33H24.1488C22.4357 33 21.2711 32.9984 20.3709 32.9249C19.4941 32.8533 19.0457 32.7234 18.7329 32.564C17.9802 32.1805 17.3683 31.5686 16.9848 30.816C16.8254 30.5032 16.6956 30.0548 16.6239 29.1779C16.5504 28.2777 16.5488 27.1132 16.5488 25.4V24.6C16.5488 22.8868 16.5504 21.7223 16.6239 20.8221C16.6956 19.9452 16.8254 19.4968 16.9848 19.184C17.3683 18.4314 17.9802 17.8195 18.7329 17.436C19.0457 17.2766 19.4941 17.1467 20.3709 17.0751C21.2711 17.0016 22.4357 17 24.1488 17Z" fill="white"/>
<g filter="url(#filter2_f_138_661)">
<ellipse cx="25.0488" cy="48.5" rx="11.5" ry="6.5" fill="#D4467E"/>
</g>
</g>
<rect x="0.548828" y="1" width="48" height="48" rx="12" stroke="url(#paint7_linear_138_661)" stroke-opacity="0.5" stroke-width="0.8"/>
</g>
<defs>
<filter id="filter0_bi_138_661" x="-19.8516" y="-19.4004" width="88.8008" height="88.8008" filterUnits="userSpaceOnUse" color-interpolation-filters="sRGB">
<feFlood flood-opacity="0" result="BackgroundImageFix"/>
<feGaussianBlur in="BackgroundImageFix" stdDeviation="10"/>
<feComposite in2="SourceAlpha" operator="in" result="effect1_backgroundBlur_138_661"/>
<feBlend mode="normal" in="SourceGraphic" in2="effect1_backgroundBlur_138_661" result="shape"/>
<feColorMatrix in="SourceAlpha" type="matrix" values="0 0 0 0 0 0 0 0 0 0 0 0 0 0 0 0 0 0 127 0" result="hardAlpha"/>
<feOffset/>
<feGaussianBlur stdDeviation="4"/>
<feComposite in2="hardAlpha" operator="arithmetic" k2="-1" k3="1"/>
<feColorMatrix type="matrix" values="0 0 0 0 0.744549 0 0 0 0 0.0509804 0 0 0 0 0.988235 0 0 0 0.32 0"/>
<feBlend mode="normal" in2="shape" result="effect2_innerShadow_138_661"/>
</filter>
<filter id="filter1_f_138_661" x="-3.45117" y="-3" width="56" height="56" filterUnits="userSpaceOnUse" color-interpolation-filters="sRGB">
<feFlood flood-opacity="0" result="BackgroundImageFix"/>
<feBlend mode="normal" in="SourceGraphic" in2="BackgroundImageFix" result="shape"/>
<feGaussianBlur stdDeviation="6" result="effect1_foregroundBlur_138_661"/>
</filter>
<filter id="filter2_f_138_661" x="-4.45117" y="24" width="59" height="49" filterUnits="userSpaceOnUse" color-interpolation-filters="sRGB">
<feFlood flood-opacity="0" result="BackgroundImageFix"/>
<feBlend mode="normal" in="SourceGraphic" in2="BackgroundImageFix" result="shape"/>
<feGaussianBlur stdDeviation="9" result="effect1_foregroundBlur_138_661"/>
</filter>
<linearGradient id="paint0_linear_138_661" x1="0.548828" y1="1" x2="48.5488" y2="49" gradientUnits="userSpaceOnUse">
<stop stop-color="#F8FBFF"/>
<stop offset="1" stop-color="white" stop-opacity="0"/>
</linearGradient>
<radialGradient id="paint1_radial_138_661" cx="0" cy="0" r="1" gradientUnits="userSpaceOnUse" gradientTransform="translate(20.5488 32) rotate(-55.3758) scale(25.5196)">
<stop stop-color="#B13589"/>
<stop offset="0.79309" stop-color="#C62F94"/>
<stop offset="1" stop-color="#8A3AC8"/>
</radialGradient>
<radialGradient id="paint2_radial_138_661" cx="0" cy="0" r="1" gradientUnits="userSpaceOnUse" gradientTransform="translate(19.5488 40) rotate(-65.1363) scale(22.5942)">
<stop stop-color="#E0E8B7"/>
<stop offset="0.444662" stop-color="#FB8A2E"/>
<stop offset="0.71474" stop-color="#E2425C"/>
<stop offset="1" stop-color="#E2425C" stop-opacity="0"/>
</radialGradient>
<radialGradient id="paint3_radial_138_661" cx="0" cy="0" r="1" gradientUnits="userSpaceOnUse" gradientTransform="translate(9.04883 12) rotate(-8.1301) scale(38.8909 8.31836)">
<stop offset="0.156701" stop-color="#406ADC"/>
<stop offset="0.467799" stop-color="#6A45BE"/>
<stop offset="1" stop-color="#6A45BE" stop-opacity="0"/>
</radialGradient>
<radialGradient id="paint4_radial_138_661" cx="0" cy="0" r="1" gradientUnits="userSpaceOnUse" gradientTransform="translate(20.5488 32) rotate(-55.3758) scale(25.5196)">
<stop stop-color="#B13589"/>
<stop offset="0.79309" stop-color="#C62F94"/>
<stop offset="1" stop-color="#8A3AC8"/>
</radialGradient>
<radialGradient id="paint5_radial_138_661" cx="0" cy="0" r="1" gradientUnits="userSpaceOnUse" gradientTransform="translate(19.5488 40) rotate(-65.1363) scale(22.5942)">
<stop stop-color="#E0E8B7"/>
<stop offset="0.444662" stop-color="#FB8A2E"/>
<stop offset="0.71474" stop-color="#E2425C"/>
<stop offset="1" stop-color="#E2425C" stop-opacity="0"/>
</radialGradient>
<radialGradient id="paint6_radial_138_661" cx="0" cy="0" r="1" gradientUnits="userSpaceOnUse" gradientTransform="translate(9.04883 12) rotate(-8.1301) scale(38.8909 8.31836)">
<stop offset="0.156701" stop-color="#406ADC"/>
<stop offset="0.467799" stop-color="#6A45BE"/>
<stop offset="1" stop-color="#6A45BE" stop-opacity="0"/>
</radialGradient>
<linearGradient id="paint7_linear_138_661" x1="1.54883" y1="-5.85375e-08" x2="47.0488" y2="49" gradientUnits="userSpaceOnUse">
<stop stop-color="#D8D8D8" stop-opacity="0.05"/>
<stop offset="1" stop-color="white" stop-opacity="0.4"/>
</linearGradient>
<clipPath id="clip0_138_661">
<rect x="0.548828" y="1" width="48" height="48" rx="12" fill="white"/>
</clipPath>
</defs>
</svg>
