<svg width="30" height="30" viewBox="0 0 30 30" fill="none" xmlns="http://www.w3.org/2000/svg">
<g id="Frame">
<path id="Vector" opacity="0.1" d="M21.875 11.25V25.625H25C25 25 25 24.5325 25 24.0556V11.25H21.875Z" fill="#FF7501"/>
<path id="Vector_2" opacity="0.2" d="M21.4062 11.25V25.625H24.8831C24.6006 25.1256 24.5312 24.5325 24.5312 24.0556V11.25H21.4062Z" fill="#FF7501"/>
<path id="Vector_3" opacity="0.3" d="M20.9375 11.25V25.625H24.7662C24.2006 25.2512 24.0625 24.5325 24.0625 24.0556V11.25H20.9375Z" fill="#FF7501"/>
<path id="Vector_4" opacity="0.4" d="M20.4688 11.25V25.625H24.65C23.8019 25.3769 23.5937 24.5325 23.5937 24.0556V11.25H20.4688Z" fill="#FF7501"/>
<path id="Vector_5" opacity="0.5" d="M20 11.25V25.625H24.5331C23.4019 25.5025 23.125 24.5325 23.125 24.0556V11.25H20Z" fill="#FF7501"/>
<path id="Vector_6" d="M21.875 6.875H13.125L10.625 4.375H3.75C3.0625 4.375 2.5 4.9375 2.5 5.625V23.7925C2.5 24.8044 3.32063 25.625 4.3325 25.625H24.66C23.825 25.635 23.125 24.9219 23.125 24.0556V8.125C23.125 7.4375 22.5625 6.875 21.875 6.875Z" fill="url(#paint0_linear_134_24)"/>
<path id="Vector_7" opacity="0.1" d="M24.4988 25.625C23.7425 25.5106 23.125 24.9219 23.125 24.0506V11.25V10H7.5C6.12125 10 5 11.1212 5 12.5V23.75C5 24.375 4.60875 25.625 4.375 25.625H23.125H24.4988Z" fill="#FE910D"/>
<path id="Vector_8" opacity="0.2" d="M23.1248 25.6249H24.4986C23.7423 25.5105 23.1248 24.9218 23.1248 24.0505V11.2499V10.208H7.73047C7.25547 10.208 6.58609 10.368 6.23484 10.6368C5.62297 11.018 5.20797 11.7118 5.20797 12.4999V23.713C5.20797 23.7711 5.20359 23.873 5.19609 23.9424C5.13609 24.6049 4.81047 25.5149 4.56234 25.568C4.55609 25.5724 4.54984 25.593 4.54297 25.6249H23.1248Z" fill="#FE910D"/>
<path id="Vector_9" opacity="0.3" d="M23.1252 25.6251H24.4989C23.7427 25.5107 23.1252 24.922 23.1252 24.0507V11.2501V10.417H7.96141C7.58141 10.417 6.76891 10.5451 6.48828 10.7601C5.86141 11.0645 5.41703 11.732 5.41703 12.5001V23.6764C5.41703 23.7232 5.41391 23.8489 5.40766 23.9039C5.35953 24.5701 5.04016 25.4039 4.75141 25.5107C4.73203 25.5245 4.71203 25.5695 4.69141 25.6251H23.1252Z" fill="#FE910D"/>
<path id="Vector_10" opacity="0.4" d="M23.1257 25.625H24.4995C23.7432 25.5106 23.1257 24.9219 23.1257 24.0506V11.25V10.625H8.1932C7.9082 10.625 6.95258 10.7213 6.74195 10.8825C6.09945 11.1106 5.6257 11.7519 5.6257 12.5V23.6394C5.6257 23.6744 5.6232 23.8238 5.61883 23.8656C5.5832 24.5363 5.26945 25.2938 4.93945 25.4538C4.90008 25.4813 4.8582 25.545 4.81445 25.625H23.1257Z" fill="#FE910D"/>
<path id="Vector_11" opacity="0.5" d="M23.1243 25.6249H24.498C23.7418 25.5105 23.1243 24.9218 23.1243 24.0505V11.2499V10.833H8.42242C8.23242 10.833 7.13367 10.8968 6.99367 11.0043C6.33617 11.1574 5.83242 11.7718 5.83242 12.4999V23.6024C5.83242 23.6255 5.83055 23.7993 5.82805 23.8268C5.8043 24.5011 5.49742 25.183 5.12617 25.3961C5.05742 25.4449 4.98305 25.5311 4.9043 25.6249H23.1243Z" fill="#FE910D"/>
<path id="Vector_12" opacity="0.6" d="M23.125 25.6251H24.4987C23.7425 25.5107 23.125 24.922 23.125 24.0507V11.2501V11.042H8.65375C8.55875 11.042 7.31687 11.0739 7.24688 11.1276C6.575 11.2039 6.04187 11.7926 6.04187 12.5001V23.5657C6.04187 23.5776 6.04125 23.7751 6.03937 23.7889C6.0275 24.4676 5.72688 25.0732 5.31438 25.3395C5.19625 25.4232 5.06312 25.5307 4.92188 25.6251H23.125Z" fill="#FE910D"/>
<path id="Vector_13" d="M8.125 11.25H26.25C26.9375 11.25 27.5 11.8125 27.5 12.5V24.1144C27.5 24.9487 26.8237 25.625 25.9894 25.625H5C6.01063 25.625 6.875 24.9069 6.875 23.75V12.5C6.875 11.8125 7.4375 11.25 8.125 11.25Z" fill="url(#paint1_linear_134_24)"/>
<path id="Vector_14" d="M26.25 11.5625C26.7669 11.5625 27.1875 11.9831 27.1875 12.5V24.1144C27.1875 24.775 26.65 25.3125 25.9894 25.3125H6.57562C6.96 24.9244 7.1875 24.38 7.1875 23.75V12.5C7.1875 11.9831 7.60812 11.5625 8.125 11.5625H26.25ZM26.25 11.25H8.125C7.4375 11.25 6.875 11.8125 6.875 12.5V23.75C6.875 24.9069 6.01063 25.625 5 25.625H25.9894C26.8237 25.625 27.5 24.9487 27.5 24.1144V12.5C27.5 11.8125 26.9375 11.25 26.25 11.25Z" fill="url(#paint2_linear_134_24)"/>
</g>
<defs>
<linearGradient id="paint0_linear_134_24" x1="16.11" y1="26.4337" x2="10.5525" y2="8.85812" gradientUnits="userSpaceOnUse">
<stop stop-color="#FF6201"/>
<stop offset="0.689" stop-color="#FDBD19"/>
<stop offset="1" stop-color="#FCE724"/>
</linearGradient>
<linearGradient id="paint1_linear_134_24" x1="22.98" y1="26.9187" x2="8.92188" y2="10.0375" gradientUnits="userSpaceOnUse">
<stop stop-color="#F4805D" stop-opacity="0.4"/>
<stop offset="1" stop-color="#FFCFAE" stop-opacity="0.2"/>
</linearGradient>
<linearGradient id="paint2_linear_134_24" x1="11.1044" y1="15.075" x2="28.8387" y2="27.71" gradientUnits="userSpaceOnUse">
<stop stop-color="#FFFFF0" stop-opacity="0.2"/>
<stop offset="1" stop-color="#F4805D" stop-opacity="0.4"/>
</linearGradient>
</defs>
</svg>
