<svg width="85" height="82" viewBox="0 0 85 82" fill="none" xmlns="http://www.w3.org/2000/svg">
<g filter="url(#filter0_bdi_116_90)">
<g clip-path="url(#clip0_116_90)">
<rect x="12.1934" y="13" width="48" height="48" rx="12" fill="url(#paint0_linear_116_90)" fill-opacity="0.04" shape-rendering="crispEdges"/>
<g style="mix-blend-mode:plus-lighter" opacity="0.5" filter="url(#filter1_f_116_90)">
<rect x="22.1934" y="23" width="28" height="28" rx="14" fill="#1275B1"/>
<path d="M32.8119 30.6921C32.8119 31.6267 32.0019 32.3843 31.0026 32.3843C30.0034 32.3843 29.1934 31.6267 29.1934 30.6921C29.1934 29.7576 30.0034 29 31.0026 29C32.0019 29 32.8119 29.7576 32.8119 30.6921Z" fill="white"/>
<path d="M29.4408 33.6281H32.5336V43H29.4408V33.6281Z" fill="white"/>
<path d="M37.5129 33.6281H34.4202V43H37.5129C37.5129 43 37.5129 40.0496 37.5129 38.2049C37.5129 37.0976 37.891 35.9855 39.3995 35.9855C41.1044 35.9855 41.0941 37.4345 41.0862 38.5571C41.0758 40.0244 41.1006 41.5219 41.1006 43H44.1934V38.0537C44.1672 34.8954 43.3442 33.4401 40.6367 33.4401C39.0288 33.4401 38.0321 34.1701 37.5129 34.8305V33.6281Z" fill="white"/>
</g>
<rect x="22.1934" y="23" width="28" height="28" rx="14" fill="#1275B1"/>
<path d="M32.8119 30.6921C32.8119 31.6267 32.0019 32.3843 31.0026 32.3843C30.0034 32.3843 29.1934 31.6267 29.1934 30.6921C29.1934 29.7576 30.0034 29 31.0026 29C32.0019 29 32.8119 29.7576 32.8119 30.6921Z" fill="white"/>
<path d="M29.4408 33.6281H32.5336V43H29.4408V33.6281Z" fill="white"/>
<path d="M37.5129 33.6281H34.4202V43H37.5129C37.5129 43 37.5129 40.0496 37.5129 38.2049C37.5129 37.0976 37.891 35.9855 39.3995 35.9855C41.1044 35.9855 41.0941 37.4345 41.0862 38.5571C41.0758 40.0244 41.1006 41.5219 41.1006 43H44.1934V38.0537C44.1672 34.8954 43.3442 33.4401 40.6367 33.4401C39.0288 33.4401 38.0321 34.1701 37.5129 34.8305V33.6281Z" fill="white"/>
<g filter="url(#filter2_f_116_90)">
<ellipse cx="36.6934" cy="60.5" rx="11.5" ry="6.5" fill="#1A75B0"/>
</g>
</g>
<rect x="12.1934" y="13" width="48" height="48" rx="12" stroke="url(#paint1_linear_116_90)" stroke-opacity="0.5" stroke-width="0.8" shape-rendering="crispEdges"/>
</g>
<g style="mix-blend-mode:screen" filter="url(#filter3_f_116_90)">
<circle cx="29.1934" cy="30" r="9" fill="white" fill-opacity="0.18"/>
</g>
<defs>
<filter id="filter0_bdi_116_90" x="-8.20703" y="-7.40039" width="92.8008" height="88.8008" filterUnits="userSpaceOnUse" color-interpolation-filters="sRGB">
<feFlood flood-opacity="0" result="BackgroundImageFix"/>
<feGaussianBlur in="BackgroundImageFix" stdDeviation="10"/>
<feComposite in2="SourceAlpha" operator="in" result="effect1_backgroundBlur_116_90"/>
<feColorMatrix in="SourceAlpha" type="matrix" values="0 0 0 0 0 0 0 0 0 0 0 0 0 0 0 0 0 0 127 0" result="hardAlpha"/>
<feOffset dx="8" dy="4"/>
<feGaussianBlur stdDeviation="8"/>
<feComposite in2="hardAlpha" operator="out"/>
<feColorMatrix type="matrix" values="0 0 0 0 0 0 0 0 0 0 0 0 0 0 0 0 0 0 0.08 0"/>
<feBlend mode="normal" in2="effect1_backgroundBlur_116_90" result="effect2_dropShadow_116_90"/>
<feBlend mode="normal" in="SourceGraphic" in2="effect2_dropShadow_116_90" result="shape"/>
<feColorMatrix in="SourceAlpha" type="matrix" values="0 0 0 0 0 0 0 0 0 0 0 0 0 0 0 0 0 0 127 0" result="hardAlpha"/>
<feOffset/>
<feGaussianBlur stdDeviation="4"/>
<feComposite in2="hardAlpha" operator="arithmetic" k2="-1" k3="1"/>
<feColorMatrix type="matrix" values="0 0 0 0 0.0509804 0 0 0 0 0.538353 0 0 0 0 0.988235 0 0 0 0.32 0"/>
<feBlend mode="normal" in2="shape" result="effect3_innerShadow_116_90"/>
</filter>
<filter id="filter1_f_116_90" x="8.19336" y="9" width="56" height="56" filterUnits="userSpaceOnUse" color-interpolation-filters="sRGB">
<feFlood flood-opacity="0" result="BackgroundImageFix"/>
<feBlend mode="normal" in="SourceGraphic" in2="BackgroundImageFix" result="shape"/>
<feGaussianBlur stdDeviation="6" result="effect1_foregroundBlur_116_90"/>
</filter>
<filter id="filter2_f_116_90" x="7.19336" y="36" width="59" height="49" filterUnits="userSpaceOnUse" color-interpolation-filters="sRGB">
<feFlood flood-opacity="0" result="BackgroundImageFix"/>
<feBlend mode="normal" in="SourceGraphic" in2="BackgroundImageFix" result="shape"/>
<feGaussianBlur stdDeviation="9" result="effect1_foregroundBlur_116_90"/>
</filter>
<filter id="filter3_f_116_90" x="0.193359" y="1" width="58" height="58" filterUnits="userSpaceOnUse" color-interpolation-filters="sRGB">
<feFlood flood-opacity="0" result="BackgroundImageFix"/>
<feBlend mode="normal" in="SourceGraphic" in2="BackgroundImageFix" result="shape"/>
<feGaussianBlur stdDeviation="10" result="effect1_foregroundBlur_116_90"/>
</filter>
<linearGradient id="paint0_linear_116_90" x1="12.1934" y1="13" x2="60.1934" y2="61" gradientUnits="userSpaceOnUse">
<stop stop-color="#F8FBFF"/>
<stop offset="1" stop-color="white" stop-opacity="0"/>
</linearGradient>
<linearGradient id="paint1_linear_116_90" x1="13.1934" y1="12" x2="58.6934" y2="61" gradientUnits="userSpaceOnUse">
<stop stop-color="#D8D8D8" stop-opacity="0.05"/>
<stop offset="1" stop-color="white" stop-opacity="0.4"/>
</linearGradient>
<clipPath id="clip0_116_90">
<rect x="12.1934" y="13" width="48" height="48" rx="12" fill="white"/>
</clipPath>
</defs>
</svg>
