<svg width="50" height="50" viewBox="0 0 50 50" fill="none" xmlns="http://www.w3.org/2000/svg">
<g filter="url(#filter0_bi_138_701)">
<g clip-path="url(#clip0_138_701)">
<rect x="1.19336" y="1" width="48" height="48" rx="12" fill="url(#paint0_linear_138_701)" fill-opacity="0.04"/>
<g style="mix-blend-mode:plus-lighter" opacity="0.5" filter="url(#filter1_f_138_701)">
<rect x="11.1934" y="11" width="28" height="28" rx="14" fill="#1275B1"/>
<path d="M21.8119 18.6921C21.8119 19.6267 21.0019 20.3843 20.0026 20.3843C19.0034 20.3843 18.1934 19.6267 18.1934 18.6921C18.1934 17.7576 19.0034 17 20.0026 17C21.0019 17 21.8119 17.7576 21.8119 18.6921Z" fill="white"/>
<path d="M18.4408 21.6281H21.5336V31H18.4408V21.6281Z" fill="white"/>
<path d="M26.5129 21.6281H23.4202V31H26.5129C26.5129 31 26.5129 28.0496 26.5129 26.2049C26.5129 25.0976 26.891 23.9855 28.3995 23.9855C30.1044 23.9855 30.0941 25.4345 30.0862 26.5571C30.0758 28.0244 30.1006 29.5219 30.1006 31H33.1934V26.0537C33.1672 22.8954 32.3442 21.4401 29.6367 21.4401C28.0288 21.4401 27.0321 22.1701 26.5129 22.8305V21.6281Z" fill="white"/>
</g>
<rect x="11.1934" y="11" width="28" height="28" rx="14" fill="#1275B1"/>
<path d="M21.8119 18.6921C21.8119 19.6267 21.0019 20.3843 20.0026 20.3843C19.0034 20.3843 18.1934 19.6267 18.1934 18.6921C18.1934 17.7576 19.0034 17 20.0026 17C21.0019 17 21.8119 17.7576 21.8119 18.6921Z" fill="white"/>
<path d="M18.4408 21.6281H21.5336V31H18.4408V21.6281Z" fill="white"/>
<path d="M26.5129 21.6281H23.4202V31H26.5129C26.5129 31 26.5129 28.0496 26.5129 26.2049C26.5129 25.0976 26.891 23.9855 28.3995 23.9855C30.1044 23.9855 30.0941 25.4345 30.0862 26.5571C30.0758 28.0244 30.1006 29.5219 30.1006 31H33.1934V26.0537C33.1672 22.8954 32.3442 21.4401 29.6367 21.4401C28.0288 21.4401 27.0321 22.1701 26.5129 22.8305V21.6281Z" fill="white"/>
<g filter="url(#filter2_f_138_701)">
<ellipse cx="25.6934" cy="48.5" rx="11.5" ry="6.5" fill="#1A75B0"/>
</g>
</g>
<rect x="1.19336" y="1" width="48" height="48" rx="12" stroke="url(#paint1_linear_138_701)" stroke-opacity="0.5" stroke-width="0.8"/>
</g>
<defs>
<filter id="filter0_bi_138_701" x="-19.207" y="-19.4004" width="88.8008" height="88.8008" filterUnits="userSpaceOnUse" color-interpolation-filters="sRGB">
<feFlood flood-opacity="0" result="BackgroundImageFix"/>
<feGaussianBlur in="BackgroundImageFix" stdDeviation="10"/>
<feComposite in2="SourceAlpha" operator="in" result="effect1_backgroundBlur_138_701"/>
<feBlend mode="normal" in="SourceGraphic" in2="effect1_backgroundBlur_138_701" result="shape"/>
<feColorMatrix in="SourceAlpha" type="matrix" values="0 0 0 0 0 0 0 0 0 0 0 0 0 0 0 0 0 0 127 0" result="hardAlpha"/>
<feOffset/>
<feGaussianBlur stdDeviation="4"/>
<feComposite in2="hardAlpha" operator="arithmetic" k2="-1" k3="1"/>
<feColorMatrix type="matrix" values="0 0 0 0 0.0509804 0 0 0 0 0.538353 0 0 0 0 0.988235 0 0 0 0.32 0"/>
<feBlend mode="normal" in2="shape" result="effect2_innerShadow_138_701"/>
</filter>
<filter id="filter1_f_138_701" x="-2.80664" y="-3" width="56" height="56" filterUnits="userSpaceOnUse" color-interpolation-filters="sRGB">
<feFlood flood-opacity="0" result="BackgroundImageFix"/>
<feBlend mode="normal" in="SourceGraphic" in2="BackgroundImageFix" result="shape"/>
<feGaussianBlur stdDeviation="6" result="effect1_foregroundBlur_138_701"/>
</filter>
<filter id="filter2_f_138_701" x="-3.80664" y="24" width="59" height="49" filterUnits="userSpaceOnUse" color-interpolation-filters="sRGB">
<feFlood flood-opacity="0" result="BackgroundImageFix"/>
<feBlend mode="normal" in="SourceGraphic" in2="BackgroundImageFix" result="shape"/>
<feGaussianBlur stdDeviation="9" result="effect1_foregroundBlur_138_701"/>
</filter>
<linearGradient id="paint0_linear_138_701" x1="1.19336" y1="1" x2="49.1934" y2="49" gradientUnits="userSpaceOnUse">
<stop stop-color="#F8FBFF"/>
<stop offset="1" stop-color="white" stop-opacity="0"/>
</linearGradient>
<linearGradient id="paint1_linear_138_701" x1="2.19336" y1="-5.85375e-08" x2="47.6934" y2="49" gradientUnits="userSpaceOnUse">
<stop stop-color="#D8D8D8" stop-opacity="0.05"/>
<stop offset="1" stop-color="white" stop-opacity="0.4"/>
</linearGradient>
<clipPath id="clip0_138_701">
<rect x="1.19336" y="1" width="48" height="48" rx="12" fill="white"/>
</clipPath>
</defs>
</svg>
