<svg width="30" height="30" viewBox="0 0 30 30" fill="none" xmlns="http://www.w3.org/2000/svg">
<g id="Frame">
<path id="Vector" opacity="0.1" d="M12.8495 17.0194C14.1651 18.335 15.7313 19.1963 17.3532 19.5782C21.817 14.9313 14.9301 8.04191 10.2832 12.5219C10.6663 14.1425 11.5357 15.7057 12.8495 17.0194Z" fill="#FE910D"/>
<path id="Vector_2" opacity="0.2" d="M12.849 17.0192C14.0227 18.1929 15.3959 19.0117 16.8296 19.4467L16.9365 19.3398C21.1721 15.1029 14.7684 8.69165 10.5284 12.931L10.4277 13.0317C10.8621 14.4685 11.674 15.8442 12.849 17.0192Z" fill="#FE910D"/>
<path id="Vector_3" opacity="0.3" d="M12.8487 17.0191C13.888 18.0585 15.0843 18.8104 16.3399 19.2735L16.6049 19.0085C20.4024 15.2104 14.6612 9.46161 10.8599 13.2629L10.5918 13.531C11.0549 14.7854 11.8105 15.981 12.8487 17.0191Z" fill="#FE910D"/>
<path id="Vector_4" opacity="0.4" d="M12.8481 17.0191C13.755 17.9259 14.7825 18.6159 15.8637 19.0859L16.2737 18.6765C19.6331 15.3165 14.555 10.2303 11.1913 13.594L10.7812 14.004C11.2506 15.0853 11.9413 16.1122 12.8481 17.0191Z" fill="#FE910D"/>
<path id="Vector_5" d="M15.9427 13.9262C14.722 12.7056 12.7439 12.7056 11.5233 13.9262L3.12641 22.3231C1.90578 23.5437 1.90578 25.5218 3.12641 26.7425C4.34703 27.9631 6.32516 27.9631 7.54578 26.7425L15.9427 18.3456C17.1633 17.125 17.1633 15.1462 15.9427 13.9262ZM4.45203 25.4162C3.96391 24.9281 3.96391 24.1368 4.45203 23.6487C4.94016 23.1606 5.73141 23.1606 6.21953 23.6487C6.70766 24.1368 6.70766 24.9281 6.21953 25.4162C5.73203 25.9043 4.94016 25.9043 4.45203 25.4162Z" fill="url(#paint0_linear_134_9)"/>
<path id="Vector_6" opacity="0.05" d="M15.9434 13.9252C14.7228 12.7046 12.7447 12.7046 11.5241 13.9252L10.0234 15.4259C10.4997 16.2415 11.1347 17.0702 11.9666 17.9021C12.7978 18.7334 13.6272 19.369 14.4441 19.844L15.9434 18.3446C17.1641 17.1246 17.1641 15.1459 15.9434 13.9252Z" fill="#FE910D"/>
<path id="Vector_7" opacity="0.1" d="M15.9419 13.9252C14.7212 12.7046 12.7431 12.7046 11.5225 13.9252L10.2188 15.229C10.6831 16.0571 11.3081 16.8934 12.1413 17.7259C12.9738 18.5584 13.8106 19.1834 14.64 19.6465L15.9419 18.3446C17.1625 17.1246 17.1625 15.1459 15.9419 13.9252Z" fill="#FE910D"/>
<path id="Vector_8" opacity="0.2" d="M15.9422 13.9252C14.7216 12.7046 12.7434 12.7046 11.5228 13.9252L10.4141 15.034C10.8678 15.8752 11.4891 16.719 12.3184 17.549C13.1478 18.3784 13.9922 18.9984 14.8353 19.4515L15.9422 18.3446C17.1628 17.1246 17.1628 15.1459 15.9422 13.9252Z" fill="#FE910D"/>
<path id="Vector_9" opacity="0.3" d="M15.9434 13.9252C14.7228 12.7046 12.7447 12.7046 11.5241 13.9252L10.6172 14.8321C11.0641 15.694 11.6722 16.5484 12.4966 17.3727C13.3197 18.1965 14.1747 18.804 15.0378 19.2509L15.9441 18.3446C17.1641 17.1246 17.1641 15.1459 15.9434 13.9252Z" fill="#FE910D"/>
<path id="Vector_10" opacity="0.4" d="M15.9416 13.9252C14.7209 12.7046 12.7428 12.7046 11.5222 13.9252L10.8047 14.6427C11.2516 15.5265 11.8634 16.3877 12.6709 17.1959C13.4778 18.0027 14.3391 18.6152 15.2241 19.0621L15.9416 18.3446C17.1622 17.1246 17.1622 15.1459 15.9416 13.9252Z" fill="#FE910D"/>
<path id="Vector_11" d="M15.9429 13.9252C14.7223 12.7046 12.7441 12.7046 11.5235 13.9252L10.9941 14.4546C11.4535 15.3696 12.0698 16.239 12.8498 17.019C13.6298 17.799 14.4991 18.4152 15.4141 18.8746L15.9435 18.3452C17.1635 17.1246 17.1635 15.1459 15.9429 13.9252Z" fill="#FE910D"/>
<path id="Vector_12" d="M27.289 8.47842C26.8802 8.06967 26.2177 8.06967 25.809 8.47842L20.8477 13.4397C20.5446 13.7428 20.0771 13.7934 19.704 13.5822C18.2246 12.7434 17.0696 11.6147 16.2715 10.1659C16.0658 9.79342 16.1183 9.33092 16.419 9.02967L21.3896 4.05905C21.7983 3.6503 21.7983 2.9878 21.3896 2.57905C21.2465 2.43592 21.0665 2.33155 20.8683 2.29092C18.0365 1.71717 14.5858 2.9078 12.4071 5.08655C8.99022 8.50342 9.43209 13.6022 12.849 17.019C16.2658 20.4359 21.3646 20.8778 24.7815 17.4609C26.9602 15.2822 28.1508 11.8315 27.5771 8.99967C27.5365 8.80155 27.4321 8.62155 27.289 8.47842Z" fill="url(#paint1_linear_134_9)"/>
<path id="Vector_13" d="M19.3902 2.46094C19.8808 2.46094 20.3571 2.50719 20.8065 2.59781C20.9377 2.62469 21.0627 2.69469 21.169 2.80031C21.3077 2.93906 21.384 3.12344 21.384 3.31969C21.384 3.51594 21.3077 3.70031 21.169 3.83844L16.1983 8.80906C15.8008 9.20656 15.7202 9.81281 15.9977 10.3172C16.8077 11.7878 18.0033 12.9778 19.5502 13.8547C19.7458 13.9653 19.9665 14.0241 20.189 14.0241C20.5227 14.0241 20.8352 13.8953 21.0696 13.6616L26.0308 8.70031C26.1696 8.56156 26.354 8.48531 26.5502 8.48531C26.7465 8.48531 26.9308 8.56156 27.069 8.70031C27.1752 8.80656 27.2452 8.93156 27.2715 9.06281C27.8133 11.7403 26.699 15.1028 24.5608 17.2409C23.0815 18.7203 21.2371 19.5022 19.2271 19.5022C17.0002 19.5022 14.814 18.5422 13.0708 16.7991C9.66959 13.3978 9.47959 8.45781 12.629 5.30844C14.3846 3.55156 16.9758 2.46094 19.3902 2.46094ZM19.3902 2.14844C16.9071 2.14844 14.2183 3.27656 12.4071 5.08781C8.99022 8.50469 9.43209 13.6034 12.849 17.0203C14.6677 18.8391 16.9627 19.8147 19.2265 19.8147C21.2165 19.8147 23.1827 19.0609 24.7815 17.4622C26.9602 15.2834 28.1508 11.8328 27.5771 9.00094C27.5371 8.80219 27.4321 8.62281 27.289 8.47969C27.0846 8.27531 26.8165 8.17344 26.549 8.17344C26.2808 8.17344 26.0133 8.27594 25.809 8.47969L20.8477 13.4409C20.6677 13.6209 20.4302 13.7122 20.1883 13.7122C20.0227 13.7122 19.8552 13.6697 19.704 13.5834C18.2246 12.7447 17.0696 11.6159 16.2715 10.1672C16.0658 9.79469 16.1183 9.33219 16.419 9.03094L21.3896 4.06031C21.7983 3.65156 21.7983 2.98906 21.3896 2.58031C21.2465 2.43719 21.0665 2.33281 20.8683 2.29219C20.3908 2.19469 19.8946 2.14844 19.3902 2.14844Z" fill="url(#paint2_linear_134_9)"/>
</g>
<defs>
<linearGradient id="paint0_linear_134_9" x1="14.6727" y1="15.1962" x2="-1.09359" y2="30.9625" gradientUnits="userSpaceOnUse">
<stop stop-color="#FF6201"/>
<stop offset="0.672" stop-color="#FDBD19"/>
<stop offset="1" stop-color="#FCE724"/>
</linearGradient>
<linearGradient id="paint1_linear_134_9" x1="11.0471" y1="18.8209" x2="23.539" y2="6.32905" gradientUnits="userSpaceOnUse">
<stop stop-color="#F4805D" stop-opacity="0.6"/>
<stop offset="1" stop-color="#FFCFAE" stop-opacity="0.4"/>
</linearGradient>
<linearGradient id="paint2_linear_134_9" x1="15.3002" y1="27.3553" x2="19.0002" y2="10.0909" gradientUnits="userSpaceOnUse">
<stop stop-color="#FCE724" stop-opacity="0.2"/>
<stop offset="1" stop-color="#FF6201" stop-opacity="0.4"/>
</linearGradient>
</defs>
</svg>
