<svg width="41" height="39" viewBox="0 0 41 39" fill="none" xmlns="http://www.w3.org/2000/svg">
<g filter="url(#filter0_b_220_24)">
<path d="M39.6906 15.5C41.1197 17.9752 41.1197 21.0248 39.6906 23.5L33.5594 34.1195C32.1303 36.5948 29.4893 38.1195 26.6312 38.1195H14.3688C11.5107 38.1195 8.86966 36.5948 7.4406 34.1195L1.3094 23.5C-0.119661 21.0248 -0.119661 17.9752 1.3094 15.5L7.4406 4.88045C8.86966 2.40524 11.5107 0.880453 14.3688 0.880453H26.6312C29.4893 0.880453 32.1303 2.40524 33.5594 4.88045L39.6906 15.5Z" fill="#272136" fill-opacity="0.47"/>
<path d="M39.3442 23.3L33.213 33.9195C31.8554 36.271 29.3464 37.7195 26.6312 37.7195H14.3688C11.6536 37.7195 9.14462 36.271 7.78701 33.9195L1.65581 23.3C0.298203 20.9486 0.298203 18.0514 1.65581 15.7L7.78701 5.08045C9.14462 2.729 11.6536 1.28045 14.3688 1.28045H26.6312C29.3464 1.28045 31.8554 2.729 33.213 5.08045L39.3442 15.7C40.7018 18.0514 40.7018 20.9486 39.3442 23.3Z" stroke="white" stroke-opacity="0.47" stroke-width="0.8"/>
</g>
<defs>
<filter id="filter0_b_220_24" x="-29.1617" y="-28.5191" width="99.3234" height="96.0383" filterUnits="userSpaceOnUse" color-interpolation-filters="sRGB">
<feFlood flood-opacity="0" result="BackgroundImageFix"/>
<feGaussianBlur in="BackgroundImageFix" stdDeviation="14.7"/>
<feComposite in2="SourceAlpha" operator="in" result="effect1_backgroundBlur_220_24"/>
<feBlend mode="normal" in="SourceGraphic" in2="effect1_backgroundBlur_220_24" result="shape"/>
</filter>
</defs>
</svg>
