<svg width="50" height="50" viewBox="0 0 50 50" fill="none" xmlns="http://www.w3.org/2000/svg">
<g filter="url(#filter0_bi_138_685)">
<g clip-path="url(#clip0_138_685)">
<rect x="1.0957" y="1" width="48" height="48" rx="12" fill="url(#paint0_linear_138_685)" fill-opacity="0.04"/>
<g style="mix-blend-mode:plus-lighter" opacity="0.5" filter="url(#filter1_f_138_685)">
<path d="M17.5467 28.7922C17.7029 27.4983 18.2336 26.7738 19.2336 26.0312C20.6645 25.0254 22.4518 25.5943 22.4518 25.5943V22.2192C22.8864 22.2081 23.3211 22.2338 23.7508 22.2961V26.6396C23.7508 26.6396 21.964 26.0707 20.5332 27.077C19.5337 27.8191 19.0019 28.5441 18.8462 29.838C18.8413 30.5406 18.9732 31.459 19.5804 32.2531C19.4302 32.1762 19.2772 32.0884 19.1213 31.99C17.7838 31.0918 17.5401 29.7444 17.5467 28.7922ZM31.1309 15.9785C30.1466 14.8999 29.7743 13.8109 29.6398 13.0459H30.878C30.878 13.0459 30.6311 15.0518 32.4304 17.0243L32.4554 17.0508C31.9704 16.7458 31.5257 16.3858 31.1309 15.9785ZM37.0958 19.0364V23.2926C37.0958 23.2926 35.5157 23.2307 34.3464 22.9332C32.7136 22.5172 31.6642 21.879 31.6642 21.879C31.6642 21.879 30.9393 21.424 30.8807 21.3923V30.1812C30.8807 30.6706 30.7467 31.8927 30.3381 32.912C29.8047 34.2455 28.9816 35.1207 28.8302 35.2996C28.8302 35.2996 27.8291 36.4827 26.0629 37.2795C24.4709 37.9982 23.0731 37.98 22.6553 37.9982C22.6553 37.9982 20.2391 38.0939 18.0648 36.6809C17.5947 36.3694 17.1558 36.0167 16.7539 35.6273L16.7648 35.635C18.9395 37.048 21.3552 36.9524 21.3552 36.9524C21.7736 36.9342 23.1713 36.9524 24.7628 36.2336C26.5274 35.4369 27.5301 34.2538 27.5301 34.2538C27.6799 34.0749 28.5068 33.1996 29.038 31.8657C29.4455 30.8469 29.5806 29.6242 29.5806 29.1349V20.347C29.6392 20.3792 30.3636 20.8343 30.3636 20.8343C30.3636 20.8343 31.4136 21.4729 33.0463 21.8884C34.2161 22.1859 35.7957 22.2478 35.7957 22.2478V18.9127C36.3361 19.0338 36.7968 19.0666 37.0958 19.0364Z" fill="#EE1D52"/>
<path d="M35.7966 18.9126V22.2467C35.7966 22.2467 34.217 22.1848 33.0472 21.8874C31.4145 21.4713 30.3645 20.8332 30.3645 20.8332C30.3645 20.8332 29.6401 20.3782 29.5815 20.3459V29.1359C29.5815 29.6253 29.4475 30.8479 29.0389 31.8667C28.5055 33.2007 27.6824 34.0759 27.531 34.2548C27.531 34.2548 26.5294 35.4379 24.7637 36.2347C23.1722 36.9534 21.7745 36.9352 21.3561 36.9534C21.3561 36.9534 18.9404 37.0491 16.7657 35.6361L16.7548 35.6283C16.5252 35.406 16.3091 35.1712 16.1075 34.9252C15.4135 34.079 14.9881 33.0785 14.8812 32.7929C14.881 32.7917 14.881 32.7905 14.8812 32.7893C14.7092 32.2932 14.3478 31.1017 14.3972 29.9477C14.4845 27.9117 15.2008 26.662 15.3901 26.3489C15.8917 25.4952 16.544 24.7313 17.318 24.0914C18.0011 23.5391 18.7753 23.0997 19.6089 22.7912C20.5101 22.429 21.4751 22.2348 22.4522 22.2192V25.5943C22.4522 25.5943 20.6648 25.0275 19.2345 26.0312C18.2345 26.7738 17.7038 27.4983 17.5476 28.7922C17.541 29.7444 17.7847 31.0918 19.1211 31.9905C19.277 32.0893 19.43 32.177 19.5802 32.2536C19.8136 32.5571 20.0978 32.8216 20.4212 33.0363C21.7267 33.8627 22.8206 33.9204 24.2195 33.3837C25.1522 33.0249 25.8543 32.2162 26.1799 31.3201C26.3845 30.7606 26.3818 30.1973 26.3818 29.6149V13.0459H29.6374C29.772 13.8109 30.1442 14.8999 31.1285 15.9785C31.5233 16.3858 31.9681 16.7458 32.453 17.0508C32.5963 17.1991 33.3288 17.9318 34.2691 18.3817C34.7553 18.6142 35.2679 18.7924 35.7966 18.9126Z" fill="black"/>
<path d="M13.5859 31.7568V31.7594L13.6667 31.9784C13.6574 31.9529 13.6274 31.8754 13.5859 31.7568Z" fill="#69C9D0"/>
<path d="M19.6085 22.7916C18.7749 23.1002 18.0007 23.5396 17.3176 24.0918C16.5433 24.7332 15.8912 25.4987 15.3903 26.354C15.2009 26.6661 14.4847 27.9168 14.3973 29.9528C14.3479 31.1068 14.7093 32.2983 14.8813 32.7944C14.8811 32.7956 14.8811 32.7968 14.8813 32.798C14.9898 33.081 15.4136 34.0815 16.1076 34.9303C16.3092 35.1763 16.5253 35.4111 16.7549 35.6334C16.0193 35.1457 15.3632 34.5562 14.8081 33.8839C14.12 33.0451 13.6957 32.0549 13.585 31.7626C13.5849 31.7605 13.5849 31.7584 13.585 31.7564V31.7527C13.4125 31.2571 13.05 30.0651 13.1005 28.9096C13.1878 26.8736 13.9041 25.6239 14.0934 25.3108C14.5942 24.4553 15.2464 23.6898 16.0208 23.0486C16.7037 22.4961 17.478 22.0567 18.3117 21.7484C18.8317 21.5416 19.3735 21.3891 19.9276 21.2934C20.7626 21.1537 21.6155 21.1415 22.4545 21.2575V22.2196C21.4765 22.2349 20.5105 22.4291 19.6085 22.7916Z" fill="#69C9D0"/>
<path d="M29.6395 13.0464H26.3838V29.6159C26.3838 30.1983 26.3838 30.76 26.182 31.3211C25.8532 32.2167 25.1538 33.0253 24.2216 33.3842C22.8222 33.923 21.7283 33.8632 20.4233 33.0368C20.0993 32.823 19.8144 32.5594 19.5801 32.2567C20.6919 32.8251 21.687 32.8152 22.9198 32.341C23.8515 31.9821 24.552 31.1734 24.8797 30.2774C25.0848 29.7178 25.0821 29.1546 25.0821 28.5726V12H29.5776C29.5776 12 29.5272 12.4119 29.6395 13.0464ZM35.7959 17.991V18.9131C35.2682 18.7926 34.7566 18.6145 34.2712 18.3821C33.3309 17.9323 32.5983 17.1995 32.4551 17.0513C32.6213 17.1559 32.7938 17.2511 32.9717 17.3363C34.1149 17.8834 35.2408 18.0467 35.7959 17.991Z" fill="#69C9D0"/>
</g>
<path d="M17.5467 28.7922C17.7029 27.4983 18.2336 26.7738 19.2336 26.0312C20.6645 25.0254 22.4518 25.5943 22.4518 25.5943V22.2192C22.8864 22.2081 23.3211 22.2338 23.7508 22.2961V26.6396C23.7508 26.6396 21.964 26.0707 20.5332 27.077C19.5337 27.8191 19.0019 28.5441 18.8462 29.838C18.8413 30.5406 18.9732 31.459 19.5804 32.2531C19.4302 32.1762 19.2772 32.0884 19.1213 31.99C17.7838 31.0918 17.5401 29.7444 17.5467 28.7922ZM31.1309 15.9785C30.1466 14.8999 29.7743 13.8109 29.6398 13.0459H30.878C30.878 13.0459 30.6311 15.0518 32.4304 17.0243L32.4554 17.0508C31.9704 16.7458 31.5257 16.3858 31.1309 15.9785ZM37.0958 19.0364V23.2926C37.0958 23.2926 35.5157 23.2307 34.3464 22.9332C32.7136 22.5172 31.6642 21.879 31.6642 21.879C31.6642 21.879 30.9393 21.424 30.8807 21.3923V30.1812C30.8807 30.6706 30.7467 31.8927 30.3381 32.912C29.8047 34.2455 28.9816 35.1207 28.8302 35.2996C28.8302 35.2996 27.8291 36.4827 26.0629 37.2795C24.4709 37.9982 23.0731 37.98 22.6553 37.9982C22.6553 37.9982 20.2391 38.0939 18.0648 36.6809C17.5947 36.3694 17.1558 36.0167 16.7539 35.6273L16.7648 35.635C18.9395 37.048 21.3552 36.9524 21.3552 36.9524C21.7736 36.9342 23.1713 36.9524 24.7628 36.2336C26.5274 35.4369 27.5301 34.2538 27.5301 34.2538C27.6799 34.0749 28.5068 33.1996 29.038 31.8657C29.4455 30.8469 29.5806 29.6242 29.5806 29.1349V20.347C29.6392 20.3792 30.3636 20.8343 30.3636 20.8343C30.3636 20.8343 31.4136 21.4729 33.0463 21.8884C34.2161 22.1859 35.7957 22.2478 35.7957 22.2478V18.9127C36.3361 19.0338 36.7968 19.0666 37.0958 19.0364Z" fill="#EE1D52"/>
<path d="M35.7966 18.9126V22.2467C35.7966 22.2467 34.217 22.1848 33.0472 21.8874C31.4145 21.4713 30.3645 20.8332 30.3645 20.8332C30.3645 20.8332 29.6401 20.3782 29.5815 20.3459V29.1359C29.5815 29.6253 29.4475 30.8479 29.0389 31.8667C28.5055 33.2007 27.6824 34.0759 27.531 34.2548C27.531 34.2548 26.5294 35.4379 24.7637 36.2347C23.1722 36.9534 21.7745 36.9352 21.3561 36.9534C21.3561 36.9534 18.9404 37.0491 16.7657 35.6361L16.7548 35.6283C16.5252 35.406 16.3091 35.1712 16.1075 34.9252C15.4135 34.079 14.9881 33.0785 14.8812 32.7929C14.881 32.7917 14.881 32.7905 14.8812 32.7893C14.7092 32.2932 14.3478 31.1017 14.3972 29.9477C14.4845 27.9117 15.2008 26.662 15.3901 26.3489C15.8917 25.4952 16.544 24.7313 17.318 24.0914C18.0011 23.5391 18.7753 23.0997 19.6089 22.7912C20.5101 22.429 21.4751 22.2348 22.4522 22.2192V25.5943C22.4522 25.5943 20.6648 25.0275 19.2345 26.0312C18.2345 26.7738 17.7038 27.4983 17.5476 28.7922C17.541 29.7444 17.7847 31.0918 19.1211 31.9905C19.277 32.0893 19.43 32.177 19.5802 32.2536C19.8136 32.5571 20.0978 32.8216 20.4212 33.0363C21.7267 33.8627 22.8206 33.9204 24.2195 33.3837C25.1522 33.0249 25.8543 32.2162 26.1799 31.3201C26.3845 30.7606 26.3818 30.1973 26.3818 29.6149V13.0459H29.6374C29.772 13.8109 30.1442 14.8999 31.1285 15.9785C31.5233 16.3858 31.9681 16.7458 32.453 17.0508C32.5963 17.1991 33.3288 17.9318 34.2691 18.3817C34.7553 18.6142 35.2679 18.7924 35.7966 18.9126Z" fill="white"/>
<path d="M13.5859 31.7568V31.7594L13.6667 31.9784C13.6574 31.9529 13.6274 31.8754 13.5859 31.7568Z" fill="#69C9D0"/>
<path d="M19.6085 22.7916C18.7749 23.1002 18.0007 23.5396 17.3176 24.0918C16.5433 24.7332 15.8912 25.4987 15.3903 26.354C15.2009 26.6661 14.4847 27.9168 14.3973 29.9528C14.3479 31.1068 14.7093 32.2983 14.8813 32.7944C14.8811 32.7956 14.8811 32.7968 14.8813 32.798C14.9898 33.081 15.4136 34.0815 16.1076 34.9303C16.3092 35.1763 16.5253 35.4111 16.7549 35.6334C16.0193 35.1457 15.3632 34.5562 14.8081 33.8839C14.12 33.0451 13.6957 32.0549 13.585 31.7626C13.5849 31.7605 13.5849 31.7584 13.585 31.7564V31.7527C13.4125 31.2571 13.05 30.0651 13.1005 28.9096C13.1878 26.8736 13.9041 25.6239 14.0934 25.3108C14.5942 24.4553 15.2464 23.6898 16.0208 23.0486C16.7037 22.4961 17.478 22.0567 18.3117 21.7484C18.8317 21.5416 19.3735 21.3891 19.9276 21.2934C20.7626 21.1537 21.6155 21.1415 22.4545 21.2575V22.2196C21.4765 22.2349 20.5105 22.4291 19.6085 22.7916Z" fill="#69C9D0"/>
<path d="M29.6395 13.0464H26.3838V29.6159C26.3838 30.1983 26.3838 30.76 26.182 31.3211C25.8532 32.2167 25.1538 33.0253 24.2216 33.3842C22.8222 33.923 21.7283 33.8632 20.4233 33.0368C20.0993 32.823 19.8144 32.5594 19.5801 32.2567C20.6919 32.8251 21.687 32.8152 22.9198 32.341C23.8515 31.9821 24.552 31.1734 24.8797 30.2774C25.0848 29.7178 25.0821 29.1546 25.0821 28.5726V12H29.5776C29.5776 12 29.5272 12.4119 29.6395 13.0464ZM35.7959 17.991V18.9131C35.2682 18.7926 34.7566 18.6145 34.2712 18.3821C33.3309 17.9323 32.5983 17.1995 32.4551 17.0513C32.6213 17.1559 32.7938 17.2511 32.9717 17.3363C34.1149 17.8834 35.2408 18.0467 35.7959 17.991Z" fill="#69C9D0"/>
<g filter="url(#filter2_f_138_685)">
<ellipse cx="25.5957" cy="48.5" rx="11.5" ry="6.5" fill="#ED2256"/>
</g>
</g>
<rect x="1.0957" y="1" width="48" height="48" rx="12" stroke="url(#paint1_linear_138_685)" stroke-opacity="0.5" stroke-width="0.8"/>
</g>
<defs>
<filter id="filter0_bi_138_685" x="-19.3047" y="-19.4004" width="88.8008" height="88.8008" filterUnits="userSpaceOnUse" color-interpolation-filters="sRGB">
<feFlood flood-opacity="0" result="BackgroundImageFix"/>
<feGaussianBlur in="BackgroundImageFix" stdDeviation="10"/>
<feComposite in2="SourceAlpha" operator="in" result="effect1_backgroundBlur_138_685"/>
<feBlend mode="normal" in="SourceGraphic" in2="effect1_backgroundBlur_138_685" result="shape"/>
<feColorMatrix in="SourceAlpha" type="matrix" values="0 0 0 0 0 0 0 0 0 0 0 0 0 0 0 0 0 0 127 0" result="hardAlpha"/>
<feOffset/>
<feGaussianBlur stdDeviation="4"/>
<feComposite in2="hardAlpha" operator="arithmetic" k2="-1" k3="1"/>
<feColorMatrix type="matrix" values="0 0 0 0 0.0323264 0 0 0 0 0.511567 0 0 0 0 0.554167 0 0 0 1 0"/>
<feBlend mode="normal" in2="shape" result="effect2_innerShadow_138_685"/>
</filter>
<filter id="filter1_f_138_685" x="-2.9043" y="-3" width="56" height="56" filterUnits="userSpaceOnUse" color-interpolation-filters="sRGB">
<feFlood flood-opacity="0" result="BackgroundImageFix"/>
<feBlend mode="normal" in="SourceGraphic" in2="BackgroundImageFix" result="shape"/>
<feGaussianBlur stdDeviation="6" result="effect1_foregroundBlur_138_685"/>
</filter>
<filter id="filter2_f_138_685" x="-3.9043" y="24" width="59" height="49" filterUnits="userSpaceOnUse" color-interpolation-filters="sRGB">
<feFlood flood-opacity="0" result="BackgroundImageFix"/>
<feBlend mode="normal" in="SourceGraphic" in2="BackgroundImageFix" result="shape"/>
<feGaussianBlur stdDeviation="9" result="effect1_foregroundBlur_138_685"/>
</filter>
<linearGradient id="paint0_linear_138_685" x1="1.0957" y1="1" x2="49.0957" y2="49" gradientUnits="userSpaceOnUse">
<stop stop-color="#F8FBFF"/>
<stop offset="1" stop-color="white" stop-opacity="0"/>
</linearGradient>
<linearGradient id="paint1_linear_138_685" x1="2.0957" y1="-5.85375e-08" x2="47.5957" y2="49" gradientUnits="userSpaceOnUse">
<stop stop-color="#D8D8D8" stop-opacity="0.05"/>
<stop offset="1" stop-color="white" stop-opacity="0.4"/>
</linearGradient>
<clipPath id="clip0_138_685">
<rect x="1.0957" y="1" width="48" height="48" rx="12" fill="white"/>
</clipPath>
</defs>
</svg>
