<svg width="85" height="82" viewBox="0 0 85 82" fill="none" xmlns="http://www.w3.org/2000/svg">
<g filter="url(#filter0_bdi_116_74)">
<g clip-path="url(#clip0_116_74)">
<rect x="12.0957" y="13" width="48" height="48" rx="12" fill="url(#paint0_linear_116_74)" fill-opacity="0.04" shape-rendering="crispEdges"/>
<g style="mix-blend-mode:plus-lighter" opacity="0.5" filter="url(#filter1_f_116_74)">
<path d="M28.5467 40.7922C28.7029 39.4983 29.2336 38.7738 30.2336 38.0312C31.6645 37.0254 33.4518 37.5943 33.4518 37.5943V34.2192C33.8864 34.2081 34.3211 34.2338 34.7508 34.2961V38.6396C34.7508 38.6396 32.964 38.0707 31.5332 39.077C30.5337 39.8191 30.0019 40.5441 29.8462 41.838C29.8413 42.5406 29.9732 43.459 30.5804 44.2531C30.4302 44.1762 30.2772 44.0884 30.1213 43.99C28.7838 43.0918 28.5401 41.7444 28.5467 40.7922ZM42.1309 27.9785C41.1466 26.8999 40.7743 25.8109 40.6398 25.0459H41.878C41.878 25.0459 41.6311 27.0518 43.4304 29.0243L43.4554 29.0508C42.9704 28.7458 42.5257 28.3858 42.1309 27.9785ZM48.0958 31.0364V35.2926C48.0958 35.2926 46.5157 35.2307 45.3464 34.9332C43.7136 34.5172 42.6642 33.879 42.6642 33.879C42.6642 33.879 41.9393 33.424 41.8807 33.3923V42.1812C41.8807 42.6706 41.7467 43.8927 41.3381 44.912C40.8047 46.2455 39.9816 47.1207 39.8302 47.2996C39.8302 47.2996 38.8291 48.4827 37.0629 49.2795C35.4709 49.9982 34.0731 49.98 33.6553 49.9982C33.6553 49.9982 31.2391 50.0939 29.0648 48.6809C28.5947 48.3694 28.1558 48.0167 27.7539 47.6273L27.7648 47.635C29.9395 49.048 32.3552 48.9524 32.3552 48.9524C32.7736 48.9342 34.1713 48.9524 35.7628 48.2336C37.5274 47.4369 38.5301 46.2538 38.5301 46.2538C38.6799 46.0749 39.5068 45.1996 40.038 43.8657C40.4455 42.8469 40.5806 41.6242 40.5806 41.1349V32.347C40.6392 32.3792 41.3636 32.8343 41.3636 32.8343C41.3636 32.8343 42.4136 33.4729 44.0463 33.8884C45.2161 34.1859 46.7957 34.2478 46.7957 34.2478V30.9127C47.3361 31.0338 47.7968 31.0666 48.0958 31.0364Z" fill="#EE1D52"/>
<path d="M46.7966 30.9126V34.2467C46.7966 34.2467 45.217 34.1848 44.0472 33.8874C42.4145 33.4713 41.3645 32.8332 41.3645 32.8332C41.3645 32.8332 40.6401 32.3782 40.5815 32.3459V41.1359C40.5815 41.6253 40.4475 42.8479 40.0389 43.8667C39.5055 45.2007 38.6824 46.0759 38.531 46.2548C38.531 46.2548 37.5294 47.4379 35.7637 48.2347C34.1722 48.9534 32.7745 48.9352 32.3561 48.9534C32.3561 48.9534 29.9404 49.0491 27.7657 47.6361L27.7548 47.6283C27.5252 47.406 27.3091 47.1712 27.1075 46.9252C26.4135 46.079 25.9881 45.0785 25.8812 44.7929C25.881 44.7917 25.881 44.7905 25.8812 44.7893C25.7092 44.2932 25.3478 43.1017 25.3972 41.9477C25.4845 39.9117 26.2008 38.662 26.3901 38.3489C26.8917 37.4952 27.544 36.7313 28.318 36.0914C29.0011 35.5391 29.7753 35.0997 30.6089 34.7912C31.5101 34.429 32.4751 34.2348 33.4522 34.2192V37.5943C33.4522 37.5943 31.6648 37.0275 30.2345 38.0312C29.2345 38.7738 28.7038 39.4983 28.5476 40.7922C28.541 41.7444 28.7847 43.0918 30.1211 43.9905C30.277 44.0893 30.43 44.177 30.5802 44.2536C30.8136 44.5571 31.0978 44.8216 31.4212 45.0363C32.7267 45.8627 33.8206 45.9204 35.2195 45.3837C36.1522 45.0249 36.8543 44.2162 37.1799 43.3201C37.3845 42.7606 37.3818 42.1973 37.3818 41.6149V25.0459H40.6374C40.772 25.8109 41.1442 26.8999 42.1285 27.9785C42.5233 28.3858 42.9681 28.7458 43.453 29.0508C43.5963 29.1991 44.3288 29.9318 45.2691 30.3817C45.7553 30.6142 46.2679 30.7924 46.7966 30.9126Z" fill="black"/>
<path d="M24.5859 43.7568V43.7594L24.6667 43.9784C24.6574 43.9529 24.6274 43.8754 24.5859 43.7568Z" fill="#69C9D0"/>
<path d="M30.6085 34.7916C29.7749 35.1002 29.0007 35.5396 28.3176 36.0918C27.5433 36.7332 26.8912 37.4987 26.3903 38.354C26.2009 38.6661 25.4847 39.9168 25.3973 41.9528C25.3479 43.1068 25.7093 44.2983 25.8813 44.7944C25.8811 44.7956 25.8811 44.7968 25.8813 44.798C25.9898 45.081 26.4136 46.0815 27.1076 46.9303C27.3092 47.1763 27.5253 47.4111 27.7549 47.6334C27.0193 47.1457 26.3632 46.5562 25.8081 45.8839C25.12 45.0451 24.6957 44.0549 24.585 43.7626C24.5849 43.7605 24.5849 43.7584 24.585 43.7564V43.7527C24.4125 43.2571 24.05 42.0651 24.1005 40.9096C24.1878 38.8736 24.9041 37.6239 25.0934 37.3108C25.5942 36.4553 26.2464 35.6898 27.0208 35.0486C27.7037 34.4961 28.478 34.0567 29.3117 33.7484C29.8317 33.5416 30.3735 33.3891 30.9276 33.2934C31.7626 33.1537 32.6155 33.1415 33.4545 33.2575V34.2196C32.4765 34.2349 31.5105 34.4291 30.6085 34.7916Z" fill="#69C9D0"/>
<path d="M40.6395 25.0464H37.3838V41.6159C37.3838 42.1983 37.3838 42.76 37.182 43.3211C36.8532 44.2167 36.1538 45.0253 35.2216 45.3842C33.8222 45.923 32.7283 45.8632 31.4233 45.0368C31.0993 44.823 30.8144 44.5594 30.5801 44.2567C31.6919 44.8251 32.687 44.8152 33.9198 44.341C34.8515 43.9821 35.552 43.1734 35.8797 42.2774C36.0848 41.7178 36.0821 41.1546 36.0821 40.5726V24H40.5776C40.5776 24 40.5272 24.4119 40.6395 25.0464ZM46.7959 29.991V30.9131C46.2682 30.7926 45.7566 30.6145 45.2712 30.3821C44.3309 29.9323 43.5983 29.1995 43.4551 29.0513C43.6213 29.1559 43.7938 29.2511 43.9717 29.3363C45.1149 29.8834 46.2408 30.0467 46.7959 29.991Z" fill="#69C9D0"/>
</g>
<path d="M28.5467 40.7922C28.7029 39.4983 29.2336 38.7738 30.2336 38.0312C31.6645 37.0254 33.4518 37.5943 33.4518 37.5943V34.2192C33.8864 34.2081 34.3211 34.2338 34.7508 34.2961V38.6396C34.7508 38.6396 32.964 38.0707 31.5332 39.077C30.5337 39.8191 30.0019 40.5441 29.8462 41.838C29.8413 42.5406 29.9732 43.459 30.5804 44.2531C30.4302 44.1762 30.2772 44.0884 30.1213 43.99C28.7838 43.0918 28.5401 41.7444 28.5467 40.7922ZM42.1309 27.9785C41.1466 26.8999 40.7743 25.8109 40.6398 25.0459H41.878C41.878 25.0459 41.6311 27.0518 43.4304 29.0243L43.4554 29.0508C42.9704 28.7458 42.5257 28.3858 42.1309 27.9785ZM48.0958 31.0364V35.2926C48.0958 35.2926 46.5157 35.2307 45.3464 34.9332C43.7136 34.5172 42.6642 33.879 42.6642 33.879C42.6642 33.879 41.9393 33.424 41.8807 33.3923V42.1812C41.8807 42.6706 41.7467 43.8927 41.3381 44.912C40.8047 46.2455 39.9816 47.1207 39.8302 47.2996C39.8302 47.2996 38.8291 48.4827 37.0629 49.2795C35.4709 49.9982 34.0731 49.98 33.6553 49.9982C33.6553 49.9982 31.2391 50.0939 29.0648 48.6809C28.5947 48.3694 28.1558 48.0167 27.7539 47.6273L27.7648 47.635C29.9395 49.048 32.3552 48.9524 32.3552 48.9524C32.7736 48.9342 34.1713 48.9524 35.7628 48.2336C37.5274 47.4369 38.5301 46.2538 38.5301 46.2538C38.6799 46.0749 39.5068 45.1996 40.038 43.8657C40.4455 42.8469 40.5806 41.6242 40.5806 41.1349V32.347C40.6392 32.3792 41.3636 32.8343 41.3636 32.8343C41.3636 32.8343 42.4136 33.4729 44.0463 33.8884C45.2161 34.1859 46.7957 34.2478 46.7957 34.2478V30.9127C47.3361 31.0338 47.7968 31.0666 48.0958 31.0364Z" fill="#EE1D52"/>
<path d="M46.7966 30.9126V34.2467C46.7966 34.2467 45.217 34.1848 44.0472 33.8874C42.4145 33.4713 41.3645 32.8332 41.3645 32.8332C41.3645 32.8332 40.6401 32.3782 40.5815 32.3459V41.1359C40.5815 41.6253 40.4475 42.8479 40.0389 43.8667C39.5055 45.2007 38.6824 46.0759 38.531 46.2548C38.531 46.2548 37.5294 47.4379 35.7637 48.2347C34.1722 48.9534 32.7745 48.9352 32.3561 48.9534C32.3561 48.9534 29.9404 49.0491 27.7657 47.6361L27.7548 47.6283C27.5252 47.406 27.3091 47.1712 27.1075 46.9252C26.4135 46.079 25.9881 45.0785 25.8812 44.7929C25.881 44.7917 25.881 44.7905 25.8812 44.7893C25.7092 44.2932 25.3478 43.1017 25.3972 41.9477C25.4845 39.9117 26.2008 38.662 26.3901 38.3489C26.8917 37.4952 27.544 36.7313 28.318 36.0914C29.0011 35.5391 29.7753 35.0997 30.6089 34.7912C31.5101 34.429 32.4751 34.2348 33.4522 34.2192V37.5943C33.4522 37.5943 31.6648 37.0275 30.2345 38.0312C29.2345 38.7738 28.7038 39.4983 28.5476 40.7922C28.541 41.7444 28.7847 43.0918 30.1211 43.9905C30.277 44.0893 30.43 44.177 30.5802 44.2536C30.8136 44.5571 31.0978 44.8216 31.4212 45.0363C32.7267 45.8627 33.8206 45.9204 35.2195 45.3837C36.1522 45.0249 36.8543 44.2162 37.1799 43.3201C37.3845 42.7606 37.3818 42.1973 37.3818 41.6149V25.0459H40.6374C40.772 25.8109 41.1442 26.8999 42.1285 27.9785C42.5233 28.3858 42.9681 28.7458 43.453 29.0508C43.5963 29.1991 44.3288 29.9318 45.2691 30.3817C45.7553 30.6142 46.2679 30.7924 46.7966 30.9126Z" fill="white"/>
<path d="M24.5859 43.7568V43.7594L24.6667 43.9784C24.6574 43.9529 24.6274 43.8754 24.5859 43.7568Z" fill="#69C9D0"/>
<path d="M30.6085 34.7916C29.7749 35.1002 29.0007 35.5396 28.3176 36.0918C27.5433 36.7332 26.8912 37.4987 26.3903 38.354C26.2009 38.6661 25.4847 39.9168 25.3973 41.9528C25.3479 43.1068 25.7093 44.2983 25.8813 44.7944C25.8811 44.7956 25.8811 44.7968 25.8813 44.798C25.9898 45.081 26.4136 46.0815 27.1076 46.9303C27.3092 47.1763 27.5253 47.4111 27.7549 47.6334C27.0193 47.1457 26.3632 46.5562 25.8081 45.8839C25.12 45.0451 24.6957 44.0549 24.585 43.7626C24.5849 43.7605 24.5849 43.7584 24.585 43.7564V43.7527C24.4125 43.2571 24.05 42.0651 24.1005 40.9096C24.1878 38.8736 24.9041 37.6239 25.0934 37.3108C25.5942 36.4553 26.2464 35.6898 27.0208 35.0486C27.7037 34.4961 28.478 34.0567 29.3117 33.7484C29.8317 33.5416 30.3735 33.3891 30.9276 33.2934C31.7626 33.1537 32.6155 33.1415 33.4545 33.2575V34.2196C32.4765 34.2349 31.5105 34.4291 30.6085 34.7916Z" fill="#69C9D0"/>
<path d="M40.6395 25.0464H37.3838V41.6159C37.3838 42.1983 37.3838 42.76 37.182 43.3211C36.8532 44.2167 36.1538 45.0253 35.2216 45.3842C33.8222 45.923 32.7283 45.8632 31.4233 45.0368C31.0993 44.823 30.8144 44.5594 30.5801 44.2567C31.6919 44.8251 32.687 44.8152 33.9198 44.341C34.8515 43.9821 35.552 43.1734 35.8797 42.2774C36.0848 41.7178 36.0821 41.1546 36.0821 40.5726V24H40.5776C40.5776 24 40.5272 24.4119 40.6395 25.0464ZM46.7959 29.991V30.9131C46.2682 30.7926 45.7566 30.6145 45.2712 30.3821C44.3309 29.9323 43.5983 29.1995 43.4551 29.0513C43.6213 29.1559 43.7938 29.2511 43.9717 29.3363C45.1149 29.8834 46.2408 30.0467 46.7959 29.991Z" fill="#69C9D0"/>
<g filter="url(#filter2_f_116_74)">
<ellipse cx="36.5957" cy="60.5" rx="11.5" ry="6.5" fill="#ED2256"/>
</g>
</g>
<rect x="12.0957" y="13" width="48" height="48" rx="12" stroke="url(#paint1_linear_116_74)" stroke-opacity="0.5" stroke-width="0.8" shape-rendering="crispEdges"/>
</g>
<g style="mix-blend-mode:screen" filter="url(#filter3_f_116_74)">
<circle cx="29.0957" cy="30" r="9" fill="white" fill-opacity="0.18"/>
</g>
<defs>
<filter id="filter0_bdi_116_74" x="-8.30469" y="-7.40039" width="92.8008" height="88.8008" filterUnits="userSpaceOnUse" color-interpolation-filters="sRGB">
<feFlood flood-opacity="0" result="BackgroundImageFix"/>
<feGaussianBlur in="BackgroundImageFix" stdDeviation="10"/>
<feComposite in2="SourceAlpha" operator="in" result="effect1_backgroundBlur_116_74"/>
<feColorMatrix in="SourceAlpha" type="matrix" values="0 0 0 0 0 0 0 0 0 0 0 0 0 0 0 0 0 0 127 0" result="hardAlpha"/>
<feOffset dx="8" dy="4"/>
<feGaussianBlur stdDeviation="8"/>
<feComposite in2="hardAlpha" operator="out"/>
<feColorMatrix type="matrix" values="0 0 0 0 0 0 0 0 0 0 0 0 0 0 0 0 0 0 0.08 0"/>
<feBlend mode="normal" in2="effect1_backgroundBlur_116_74" result="effect2_dropShadow_116_74"/>
<feBlend mode="normal" in="SourceGraphic" in2="effect2_dropShadow_116_74" result="shape"/>
<feColorMatrix in="SourceAlpha" type="matrix" values="0 0 0 0 0 0 0 0 0 0 0 0 0 0 0 0 0 0 127 0" result="hardAlpha"/>
<feOffset/>
<feGaussianBlur stdDeviation="4"/>
<feComposite in2="hardAlpha" operator="arithmetic" k2="-1" k3="1"/>
<feColorMatrix type="matrix" values="0 0 0 0 0.0323264 0 0 0 0 0.511567 0 0 0 0 0.554167 0 0 0 1 0"/>
<feBlend mode="normal" in2="shape" result="effect3_innerShadow_116_74"/>
</filter>
<filter id="filter1_f_116_74" x="8.0957" y="9" width="56" height="56" filterUnits="userSpaceOnUse" color-interpolation-filters="sRGB">
<feFlood flood-opacity="0" result="BackgroundImageFix"/>
<feBlend mode="normal" in="SourceGraphic" in2="BackgroundImageFix" result="shape"/>
<feGaussianBlur stdDeviation="6" result="effect1_foregroundBlur_116_74"/>
</filter>
<filter id="filter2_f_116_74" x="7.0957" y="36" width="59" height="49" filterUnits="userSpaceOnUse" color-interpolation-filters="sRGB">
<feFlood flood-opacity="0" result="BackgroundImageFix"/>
<feBlend mode="normal" in="SourceGraphic" in2="BackgroundImageFix" result="shape"/>
<feGaussianBlur stdDeviation="9" result="effect1_foregroundBlur_116_74"/>
</filter>
<filter id="filter3_f_116_74" x="0.0957031" y="1" width="58" height="58" filterUnits="userSpaceOnUse" color-interpolation-filters="sRGB">
<feFlood flood-opacity="0" result="BackgroundImageFix"/>
<feBlend mode="normal" in="SourceGraphic" in2="BackgroundImageFix" result="shape"/>
<feGaussianBlur stdDeviation="10" result="effect1_foregroundBlur_116_74"/>
</filter>
<linearGradient id="paint0_linear_116_74" x1="12.0957" y1="13" x2="60.0957" y2="61" gradientUnits="userSpaceOnUse">
<stop stop-color="#F8FBFF"/>
<stop offset="1" stop-color="white" stop-opacity="0"/>
</linearGradient>
<linearGradient id="paint1_linear_116_74" x1="13.0957" y1="12" x2="58.5957" y2="61" gradientUnits="userSpaceOnUse">
<stop stop-color="#D8D8D8" stop-opacity="0.05"/>
<stop offset="1" stop-color="white" stop-opacity="0.4"/>
</linearGradient>
<clipPath id="clip0_116_74">
<rect x="12.0957" y="13" width="48" height="48" rx="12" fill="white"/>
</clipPath>
</defs>
</svg>
