<svg width="50" height="50" viewBox="0 0 50 50" fill="none" xmlns="http://www.w3.org/2000/svg">
<g filter="url(#filter0_bi_138_675)">
<g clip-path="url(#clip0_138_675)">
<rect x="0.644531" y="1" width="48" height="48" rx="12" fill="url(#paint0_linear_138_675)" fill-opacity="0.04"/>
<g style="mix-blend-mode:plus-lighter" opacity="0.5" filter="url(#filter1_f_138_675)">
<path d="M10.889 18.9411C11.0176 16.9623 12.6085 15.4116 14.589 15.3134C17.4569 15.1714 21.556 15 24.6445 15C27.7331 15 31.8321 15.1714 34.7001 15.3134C36.6806 15.4116 38.2715 16.9623 38.4 18.9411C38.5232 20.8369 38.6445 23.1697 38.6445 25C38.6445 26.8303 38.5232 29.1631 38.4 31.0589C38.2715 33.0377 36.6806 34.5884 34.7001 34.6866C31.8321 34.8286 27.7331 35 24.6445 35C21.556 35 17.4569 34.8286 14.589 34.6866C12.6085 34.5884 11.0176 33.0377 10.889 31.0589C10.7659 29.1631 10.6445 26.8303 10.6445 25C10.6445 23.1697 10.7659 20.8369 10.889 18.9411Z" fill="#FC0D1B"/>
<path d="M21.6445 21V29L29.6445 25L21.6445 21Z" fill="white"/>
</g>
<path d="M10.889 18.9411C11.0176 16.9623 12.6085 15.4116 14.589 15.3134C17.4569 15.1714 21.556 15 24.6445 15C27.7331 15 31.8321 15.1714 34.7001 15.3134C36.6806 15.4116 38.2715 16.9623 38.4 18.9411C38.5232 20.8369 38.6445 23.1697 38.6445 25C38.6445 26.8303 38.5232 29.1631 38.4 31.0589C38.2715 33.0377 36.6806 34.5884 34.7001 34.6866C31.8321 34.8286 27.7331 35 24.6445 35C21.556 35 17.4569 34.8286 14.589 34.6866C12.6085 34.5884 11.0176 33.0377 10.889 31.0589C10.7659 29.1631 10.6445 26.8303 10.6445 25C10.6445 23.1697 10.7659 20.8369 10.889 18.9411Z" fill="#FC0D1B"/>
<path d="M21.6445 21V29L29.6445 25L21.6445 21Z" fill="white"/>
<g filter="url(#filter2_f_138_675)">
<ellipse cx="25.1445" cy="48.5" rx="11.5" ry="6.5" fill="#FC0D1B"/>
</g>
</g>
<rect x="0.644531" y="1" width="48" height="48" rx="12" stroke="url(#paint1_linear_138_675)" stroke-opacity="0.5" stroke-width="0.8"/>
</g>
<defs>
<filter id="filter0_bi_138_675" x="-19.7559" y="-19.4004" width="88.8008" height="88.8008" filterUnits="userSpaceOnUse" color-interpolation-filters="sRGB">
<feFlood flood-opacity="0" result="BackgroundImageFix"/>
<feGaussianBlur in="BackgroundImageFix" stdDeviation="10"/>
<feComposite in2="SourceAlpha" operator="in" result="effect1_backgroundBlur_138_675"/>
<feBlend mode="normal" in="SourceGraphic" in2="effect1_backgroundBlur_138_675" result="shape"/>
<feColorMatrix in="SourceAlpha" type="matrix" values="0 0 0 0 0 0 0 0 0 0 0 0 0 0 0 0 0 0 127 0" result="hardAlpha"/>
<feOffset/>
<feGaussianBlur stdDeviation="4"/>
<feComposite in2="hardAlpha" operator="arithmetic" k2="-1" k3="1"/>
<feColorMatrix type="matrix" values="0 0 0 0 0.988235 0 0 0 0 0.0509804 0 0 0 0 0.105882 0 0 0 0.32 0"/>
<feBlend mode="normal" in2="shape" result="effect2_innerShadow_138_675"/>
</filter>
<filter id="filter1_f_138_675" x="-3.35547" y="-3" width="56" height="56" filterUnits="userSpaceOnUse" color-interpolation-filters="sRGB">
<feFlood flood-opacity="0" result="BackgroundImageFix"/>
<feBlend mode="normal" in="SourceGraphic" in2="BackgroundImageFix" result="shape"/>
<feGaussianBlur stdDeviation="6" result="effect1_foregroundBlur_138_675"/>
</filter>
<filter id="filter2_f_138_675" x="-4.35547" y="24" width="59" height="49" filterUnits="userSpaceOnUse" color-interpolation-filters="sRGB">
<feFlood flood-opacity="0" result="BackgroundImageFix"/>
<feBlend mode="normal" in="SourceGraphic" in2="BackgroundImageFix" result="shape"/>
<feGaussianBlur stdDeviation="9" result="effect1_foregroundBlur_138_675"/>
</filter>
<linearGradient id="paint0_linear_138_675" x1="0.644531" y1="1" x2="48.6445" y2="49" gradientUnits="userSpaceOnUse">
<stop stop-color="#F8FBFF"/>
<stop offset="1" stop-color="white" stop-opacity="0"/>
</linearGradient>
<linearGradient id="paint1_linear_138_675" x1="1.64453" y1="-5.85375e-08" x2="47.1445" y2="49" gradientUnits="userSpaceOnUse">
<stop stop-color="#D8D8D8" stop-opacity="0.05"/>
<stop offset="1" stop-color="white" stop-opacity="0.4"/>
</linearGradient>
<clipPath id="clip0_138_675">
<rect x="0.644531" y="1" width="48" height="48" rx="12" fill="white"/>
</clipPath>
</defs>
</svg>
